<mxfile compressed="false" host="app.diagrams.net" agent="Mozilla/5.0 (Macintosh; Intel Mac OS X 10.15; rv:135.0) Gecko/20100101 Firefox/135.0" version="26.0.16">
  <diagram id="Network Topology" name="Network Topology">
    <mxGraphModel dx="1431" dy="779" grid="0" gridSize="10" guides="1" tooltips="1" connect="1" arrows="1" fold="1" page="1" pageScale="1" pageWidth="725" pageHeight="600" background="none" math="0" shadow="0">
      <root>
        <mxCell id="0" />
        <mxCell id="1" parent="0" />
        <object label="​" id="mid:spine1:ethernet-1/1:leaf1:ethernet-1/49">
          <mxCell style="ellipse;whiteSpace=wrap;html=1;aspect=fixed;fontColor=#FFFFFF;fontSize=6;fillColor=#BEC8D2;strokeColor=none;noLabel=1;fontFamily=Google Sans;fontSource=https%3A%2F%2Ffonts.googleapis.com%2Fcss%3Ffamily%3DGoogle%2BSans;" parent="1" vertex="1">
            <mxGeometry x="175" y="200" width="4" height="4" as="geometry" />
          </mxCell>
        </object>
        <object label="rate" source="spine1:ethernet-1/1:leaf1:ethernet-1/49" target="mid:spine1:ethernet-1/1:leaf1:ethernet-1/49" id="link_id:spine1:ethernet-1/1:leaf1:ethernet-1/49">
          <mxCell style="rounded=0;orthogonalLoop=1;html=1;startSize=6;endArrow=classicThin;endFill=1;endSize=2;fontSize=12;strokeColor=#bec8d2;fontColor=#FFFFFF;textOpacity=60;labelBackgroundColor=#4D5766;jumpStyle=gap;strokeWidth=3;fontFamily=Google Sans;fontSource=https%3A%2F%2Ffonts.googleapis.com%2Fcss%3Ffamily%3DGoogle%2BSans;" parent="1" source="spine1:ethernet-1/1:leaf1:ethernet-1/49" target="mid:spine1:ethernet-1/1:leaf1:ethernet-1/49" edge="1">
            <mxGeometry x="-0.1717" y="-2" relative="1" as="geometry">
              <mxPoint as="offset" />
            </mxGeometry>
          </mxCell>
        </object>
        <object label="rate" source="leaf1:ethernet-1/49:spine1:ethernet-1/1" target="mid:spine1:ethernet-1/1:leaf1:ethernet-1/49" id="link_id:leaf1:ethernet-1/49:spine1:ethernet-1/1">
          <mxCell style="rounded=0;orthogonalLoop=1;html=1;startSize=6;endArrow=classicThin;endFill=1;endSize=2;fontSize=12;strokeColor=#bec8d2;fontColor=#FFFFFF;textOpacity=60;labelBackgroundColor=#4D5766;jumpStyle=gap;strokeWidth=3;fontFamily=Google Sans;fontSource=https%3A%2F%2Ffonts.googleapis.com%2Fcss%3Ffamily%3DGoogle%2BSans;" parent="1" source="leaf1:ethernet-1/49:spine1:ethernet-1/1" target="mid:spine1:ethernet-1/1:leaf1:ethernet-1/49" edge="1">
            <mxGeometry x="0.1569" y="1" relative="1" as="geometry">
              <mxPoint as="offset" />
            </mxGeometry>
          </mxCell>
        </object>
        <object label="​" id="mid:spine1:ethernet-1/2:leaf2:ethernet-1/49">
          <mxCell style="ellipse;whiteSpace=wrap;html=1;aspect=fixed;fontColor=#FFFFFF;fontSize=6;fillColor=#BEC8D2;strokeColor=none;noLabel=1;fontFamily=Google Sans;fontSource=https%3A%2F%2Ffonts.googleapis.com%2Fcss%3Ffamily%3DGoogle%2BSans;" parent="1" vertex="1">
            <mxGeometry x="303" y="234" width="4" height="4" as="geometry" />
          </mxCell>
        </object>
        <object label="rate" source="spine1:ethernet-1/2:leaf2:ethernet-1/49" target="mid:spine1:ethernet-1/2:leaf2:ethernet-1/49" id="link_id:spine1:ethernet-1/2:leaf2:ethernet-1/49">
          <mxCell style="rounded=0;orthogonalLoop=1;html=1;startSize=6;endArrow=classicThin;endFill=1;endSize=2;fontSize=12;strokeColor=#bec8d2;fontColor=#FFFFFF;textOpacity=60;labelBackgroundColor=#4D5766;jumpStyle=gap;strokeWidth=3;fontFamily=Google Sans;fontSource=https%3A%2F%2Ffonts.googleapis.com%2Fcss%3Ffamily%3DGoogle%2BSans;" parent="1" source="spine1:ethernet-1/2:leaf2:ethernet-1/49" target="mid:spine1:ethernet-1/2:leaf2:ethernet-1/49" edge="1">
            <mxGeometry x="0.3464" relative="1" as="geometry">
              <mxPoint as="offset" />
            </mxGeometry>
          </mxCell>
        </object>
        <object label="rate" source="leaf2:ethernet-1/49:spine1:ethernet-1/2" target="mid:spine1:ethernet-1/2:leaf2:ethernet-1/49" id="link_id:leaf2:ethernet-1/49:spine1:ethernet-1/2">
          <mxCell style="rounded=0;orthogonalLoop=1;html=1;startSize=6;endArrow=classicThin;endFill=1;endSize=2;fontSize=12;strokeColor=#bec8d2;fontColor=#FFFFFF;textOpacity=60;labelBackgroundColor=#4D5766;jumpStyle=gap;strokeWidth=3;fontFamily=Google Sans;fontSource=https%3A%2F%2Ffonts.googleapis.com%2Fcss%3Ffamily%3DGoogle%2BSans;" parent="1" source="leaf2:ethernet-1/49:spine1:ethernet-1/2" target="mid:spine1:ethernet-1/2:leaf2:ethernet-1/49" edge="1">
            <mxGeometry relative="1" as="geometry" />
          </mxCell>
        </object>
        <object label="​" id="mid:spine1:ethernet-1/3:leaf3:ethernet-1/49">
          <mxCell style="ellipse;whiteSpace=wrap;html=1;aspect=fixed;fontColor=#FFFFFF;fontSize=6;fillColor=#BEC8D2;strokeColor=none;noLabel=1;fontFamily=Google Sans;fontSource=https%3A%2F%2Ffonts.googleapis.com%2Fcss%3Ffamily%3DGoogle%2BSans;" parent="1" vertex="1">
            <mxGeometry x="398" y="232" width="4" height="4" as="geometry" />
          </mxCell>
        </object>
        <object label="rate" source="spine1:ethernet-1/3:leaf3:ethernet-1/49" target="mid:spine1:ethernet-1/3:leaf3:ethernet-1/49" id="link_id:spine1:ethernet-1/3:leaf3:ethernet-1/49">
          <mxCell style="rounded=0;orthogonalLoop=1;html=1;startSize=6;endArrow=classicThin;endFill=1;endSize=2;fontSize=12;strokeColor=#bec8d2;fontColor=#FFFFFF;textOpacity=60;labelBackgroundColor=#4D5766;jumpStyle=gap;strokeWidth=3;fontFamily=Google Sans;fontSource=https%3A%2F%2Ffonts.googleapis.com%2Fcss%3Ffamily%3DGoogle%2BSans;" parent="1" source="spine1:ethernet-1/3:leaf3:ethernet-1/49" target="mid:spine1:ethernet-1/3:leaf3:ethernet-1/49" edge="1">
            <mxGeometry relative="1" as="geometry" />
          </mxCell>
        </object>
        <object label="rate" source="leaf3:ethernet-1/49:spine1:ethernet-1/3" target="mid:spine1:ethernet-1/3:leaf3:ethernet-1/49" id="link_id:leaf3:ethernet-1/49:spine1:ethernet-1/3">
          <mxCell style="rounded=0;orthogonalLoop=1;html=1;startSize=6;endArrow=classicThin;endFill=1;endSize=2;fontSize=12;strokeColor=light-dark(#bdc8d2, #5c646e);fontColor=#FFFFFF;textOpacity=60;labelBackgroundColor=#4D5766;jumpStyle=gap;strokeWidth=3;fontFamily=Google Sans;fontSource=https%3A%2F%2Ffonts.googleapis.com%2Fcss%3Ffamily%3DGoogle%2BSans;" parent="1" source="leaf3:ethernet-1/49:spine1:ethernet-1/3" target="mid:spine1:ethernet-1/3:leaf3:ethernet-1/49" edge="1">
            <mxGeometry relative="1" as="geometry" />
          </mxCell>
        </object>
        <object label="​" id="mid:spine1:ethernet-1/4:leaf4:ethernet-1/49">
          <mxCell style="ellipse;whiteSpace=wrap;html=1;aspect=fixed;fontColor=#FFFFFF;fontSize=6;fillColor=#BEC8D2;strokeColor=none;noLabel=1;fontFamily=Google Sans;fontSource=https%3A%2F%2Ffonts.googleapis.com%2Fcss%3Ffamily%3DGoogle%2BSans;" parent="1" vertex="1">
            <mxGeometry x="591" y="220" width="4" height="4" as="geometry" />
          </mxCell>
        </object>
        <object label="rate" source="spine1:ethernet-1/4:leaf4:ethernet-1/49" target="mid:spine1:ethernet-1/4:leaf4:ethernet-1/49" id="link_id:spine1:ethernet-1/4:leaf4:ethernet-1/49">
          <mxCell style="rounded=0;orthogonalLoop=1;html=1;startSize=6;endArrow=classicThin;endFill=1;endSize=2;fontSize=12;strokeColor=#bec8d2;fontColor=#FFFFFF;textOpacity=60;labelBackgroundColor=#4D5766;jumpStyle=gap;strokeWidth=3;fontFamily=Google Sans;fontSource=https%3A%2F%2Ffonts.googleapis.com%2Fcss%3Ffamily%3DGoogle%2BSans;" parent="1" source="spine1:ethernet-1/4:leaf4:ethernet-1/49" target="mid:spine1:ethernet-1/4:leaf4:ethernet-1/49" edge="1">
            <mxGeometry x="0.5816" relative="1" as="geometry">
              <mxPoint as="offset" />
            </mxGeometry>
          </mxCell>
        </object>
        <object label="rate" source="leaf4:ethernet-1/49:spine1:ethernet-1/4" target="mid:spine1:ethernet-1/4:leaf4:ethernet-1/49" id="link_id:leaf4:ethernet-1/49:spine1:ethernet-1/4">
          <mxCell style="rounded=0;orthogonalLoop=1;html=1;startSize=6;endArrow=classicThin;endFill=1;endSize=2;fontSize=12;strokeColor=#bec8d2;fontColor=#FFFFFF;textOpacity=60;labelBackgroundColor=#4D5766;jumpStyle=gap;strokeWidth=3;fontFamily=Google Sans;fontSource=https%3A%2F%2Ffonts.googleapis.com%2Fcss%3Ffamily%3DGoogle%2BSans;" parent="1" source="leaf4:ethernet-1/49:spine1:ethernet-1/4" target="mid:spine1:ethernet-1/4:leaf4:ethernet-1/49" edge="1">
            <mxGeometry relative="1" as="geometry" />
          </mxCell>
        </object>
        <object label="​" id="mid:spine2:ethernet-1/1:leaf1:ethernet-1/50">
          <mxCell style="ellipse;whiteSpace=wrap;html=1;aspect=fixed;fontColor=#FFFFFF;fontSize=6;fillColor=#BEC8D2;strokeColor=none;noLabel=1;fontFamily=Google Sans;fontSource=https%3A%2F%2Ffonts.googleapis.com%2Fcss%3Ffamily%3DGoogle%2BSans;" parent="1" vertex="1">
            <mxGeometry x="209" y="220" width="4" height="4" as="geometry" />
          </mxCell>
        </object>
        <object label="rate" source="spine2:ethernet-1/1:leaf1:ethernet-1/50" target="mid:spine2:ethernet-1/1:leaf1:ethernet-1/50" id="link_id:spine2:ethernet-1/1:leaf1:ethernet-1/50">
          <mxCell style="rounded=0;orthogonalLoop=1;html=1;startSize=6;endArrow=classicThin;endFill=1;endSize=2;fontSize=12;strokeColor=#bec8d2;fontColor=#FFFFFF;textOpacity=60;labelBackgroundColor=#4D5766;jumpStyle=gap;strokeWidth=3;fontFamily=Google Sans;fontSource=https%3A%2F%2Ffonts.googleapis.com%2Fcss%3Ffamily%3DGoogle%2BSans;" parent="1" source="spine2:ethernet-1/1:leaf1:ethernet-1/50" target="mid:spine2:ethernet-1/1:leaf1:ethernet-1/50" edge="1">
            <mxGeometry x="0.6283" y="-9" relative="1" as="geometry">
              <mxPoint as="offset" />
            </mxGeometry>
          </mxCell>
        </object>
        <object label="rate" source="leaf1:ethernet-1/50:spine2:ethernet-1/1" target="mid:spine2:ethernet-1/1:leaf1:ethernet-1/50" id="link_id:leaf1:ethernet-1/50:spine2:ethernet-1/1">
          <mxCell style="rounded=0;orthogonalLoop=1;html=1;startSize=6;endArrow=classicThin;endFill=1;endSize=2;fontSize=12;strokeColor=#bec8d2;fontColor=#FFFFFF;textOpacity=60;labelBackgroundColor=#4D5766;jumpStyle=gap;strokeWidth=3;fontFamily=Google Sans;fontSource=https%3A%2F%2Ffonts.googleapis.com%2Fcss%3Ffamily%3DGoogle%2BSans;" parent="1" source="leaf1:ethernet-1/50:spine2:ethernet-1/1" target="mid:spine2:ethernet-1/1:leaf1:ethernet-1/50" edge="1">
            <mxGeometry x="-0.2642" y="-1" relative="1" as="geometry">
              <mxPoint as="offset" />
            </mxGeometry>
          </mxCell>
        </object>
        <object label="​" id="mid:spine2:ethernet-1/2:leaf2:ethernet-1/50">
          <mxCell style="ellipse;whiteSpace=wrap;html=1;aspect=fixed;fontColor=#FFFFFF;fontSize=6;fillColor=#BEC8D2;strokeColor=none;noLabel=1;fontFamily=Google Sans;fontSource=https%3A%2F%2Ffonts.googleapis.com%2Fcss%3Ffamily%3DGoogle%2BSans;" parent="1" vertex="1">
            <mxGeometry x="397.99588730959044" y="231.9997682987174" width="4" height="4" as="geometry" />
          </mxCell>
        </object>
        <object label="rate" source="spine2:ethernet-1/2:leaf2:ethernet-1/50" target="mid:spine2:ethernet-1/2:leaf2:ethernet-1/50" id="link_id:spine2:ethernet-1/2:leaf2:ethernet-1/50">
          <mxCell style="rounded=0;orthogonalLoop=1;html=1;startSize=6;endArrow=classicThin;endFill=1;endSize=2;fontSize=12;strokeColor=#bec8d2;fontColor=#FFFFFF;textOpacity=60;labelBackgroundColor=#4D5766;jumpStyle=gap;strokeWidth=3;fontFamily=Google Sans;fontSource=https%3A%2F%2Ffonts.googleapis.com%2Fcss%3Ffamily%3DGoogle%2BSans;" parent="1" source="spine2:ethernet-1/2:leaf2:ethernet-1/50" target="mid:spine2:ethernet-1/2:leaf2:ethernet-1/50" edge="1">
            <mxGeometry x="0.3064" y="-1" relative="1" as="geometry">
              <mxPoint as="offset" />
            </mxGeometry>
          </mxCell>
        </object>
        <object label="rate" source="leaf2:ethernet-1/50:spine2:ethernet-1/2" target="mid:spine2:ethernet-1/2:leaf2:ethernet-1/50" id="link_id:leaf2:ethernet-1/50:spine2:ethernet-1/2">
          <mxCell style="rounded=0;orthogonalLoop=1;html=1;startSize=6;endArrow=classicThin;endFill=1;endSize=2;fontSize=12;strokeColor=#bec8d2;fontColor=#FFFFFF;textOpacity=60;labelBackgroundColor=#4D5766;jumpStyle=gap;strokeWidth=3;fontFamily=Google Sans;fontSource=https%3A%2F%2Ffonts.googleapis.com%2Fcss%3Ffamily%3DGoogle%2BSans;" parent="1" source="leaf2:ethernet-1/50:spine2:ethernet-1/2" target="mid:spine2:ethernet-1/2:leaf2:ethernet-1/50" edge="1">
            <mxGeometry relative="1" as="geometry" />
          </mxCell>
        </object>
        <object label="​" id="mid:spine2:ethernet-1/3:leaf3:ethernet-1/50">
          <mxCell style="ellipse;whiteSpace=wrap;html=1;aspect=fixed;fontColor=#FFFFFF;fontSize=6;fillColor=#BEC8D2;strokeColor=none;noLabel=1;fontFamily=Google Sans;fontSource=https%3A%2F%2Ffonts.googleapis.com%2Fcss%3Ffamily%3DGoogle%2BSans;" parent="1" vertex="1">
            <mxGeometry x="493" y="233" width="4" height="4" as="geometry" />
          </mxCell>
        </object>
        <object label="rate" source="spine2:ethernet-1/3:leaf3:ethernet-1/50" target="mid:spine2:ethernet-1/3:leaf3:ethernet-1/50" id="link_id:spine2:ethernet-1/3:leaf3:ethernet-1/50">
          <mxCell style="rounded=0;orthogonalLoop=1;html=1;startSize=6;endArrow=classicThin;endFill=1;endSize=2;fontSize=12;strokeColor=#bec8d2;fontColor=#FFFFFF;textOpacity=60;labelBackgroundColor=#4D5766;jumpStyle=gap;strokeWidth=3;fontFamily=Google Sans;fontSource=https%3A%2F%2Ffonts.googleapis.com%2Fcss%3Ffamily%3DGoogle%2BSans;" parent="1" source="spine2:ethernet-1/3:leaf3:ethernet-1/50" target="mid:spine2:ethernet-1/3:leaf3:ethernet-1/50" edge="1">
            <mxGeometry x="-0.2773" relative="1" as="geometry">
              <mxPoint as="offset" />
            </mxGeometry>
          </mxCell>
        </object>
        <object label="rate" source="leaf3:ethernet-1/50:spine2:ethernet-1/3" target="mid:spine2:ethernet-1/3:leaf3:ethernet-1/50" id="link_id:leaf3:ethernet-1/50:spine2:ethernet-1/3">
          <mxCell style="rounded=0;orthogonalLoop=1;html=1;startSize=6;endArrow=classicThin;endFill=1;endSize=2;fontSize=12;strokeColor=#bec8d2;fontColor=#FFFFFF;textOpacity=60;labelBackgroundColor=#4D5766;jumpStyle=gap;strokeWidth=3;fontFamily=Google Sans;fontSource=https%3A%2F%2Ffonts.googleapis.com%2Fcss%3Ffamily%3DGoogle%2BSans;" parent="1" source="leaf3:ethernet-1/50:spine2:ethernet-1/3" target="mid:spine2:ethernet-1/3:leaf3:ethernet-1/50" edge="1">
            <mxGeometry relative="1" as="geometry" />
          </mxCell>
        </object>
        <object label="​" id="mid:spine2:ethernet-1/4:leaf4:ethernet-1/50">
          <mxCell style="ellipse;whiteSpace=wrap;html=1;aspect=fixed;fontColor=#FFFFFF;fontSize=6;fillColor=#BEC8D2;strokeColor=none;noLabel=1;fontFamily=Google Sans;fontSource=https%3A%2F%2Ffonts.googleapis.com%2Fcss%3Ffamily%3DGoogle%2BSans;" parent="1" vertex="1">
            <mxGeometry x="620" y="200" width="4" height="4" as="geometry" />
          </mxCell>
        </object>
        <object label="rate" source="spine2:ethernet-1/4:leaf4:ethernet-1/50" target="mid:spine2:ethernet-1/4:leaf4:ethernet-1/50" id="link_id:spine2:ethernet-1/4:leaf4:ethernet-1/50">
          <mxCell style="rounded=0;orthogonalLoop=1;html=1;startSize=6;endArrow=classicThin;endFill=1;endSize=2;fontSize=12;strokeColor=#bec8d2;fontColor=#FFFFFF;textOpacity=60;labelBackgroundColor=#4D5766;jumpStyle=gap;strokeWidth=3;fontFamily=Google Sans;fontSource=https%3A%2F%2Ffonts.googleapis.com%2Fcss%3Ffamily%3DGoogle%2BSans;" parent="1" source="spine2:ethernet-1/4:leaf4:ethernet-1/50" target="mid:spine2:ethernet-1/4:leaf4:ethernet-1/50" edge="1">
            <mxGeometry relative="1" as="geometry" />
          </mxCell>
        </object>
        <object label="rate" source="leaf4:ethernet-1/50:spine2:ethernet-1/4" target="mid:spine2:ethernet-1/4:leaf4:ethernet-1/50" id="link_id:leaf4:ethernet-1/50:spine2:ethernet-1/4">
          <mxCell style="rounded=0;orthogonalLoop=1;html=1;startSize=6;endArrow=classicThin;endFill=1;endSize=2;fontSize=12;strokeColor=#bec8d2;fontColor=#FFFFFF;textOpacity=60;labelBackgroundColor=#4D5766;jumpStyle=gap;strokeWidth=3;labelBorderColor=none;textShadow=0;fontFamily=Google Sans;fontSource=https%3A%2F%2Ffonts.googleapis.com%2Fcss%3Ffamily%3DGoogle%2BSans;" parent="1" source="leaf4:ethernet-1/50:spine2:ethernet-1/4" target="mid:spine2:ethernet-1/4:leaf4:ethernet-1/50" edge="1">
            <mxGeometry x="-0.0097" y="-6" relative="1" as="geometry">
              <mxPoint as="offset" />
            </mxGeometry>
          </mxCell>
        </object>
        <object label="​" id="mid:leaf1:ethernet-1/1:client1:eth1">
          <mxCell style="ellipse;whiteSpace=wrap;html=1;aspect=fixed;fontColor=#FFFFFF;fontSize=6;fillColor=#BEC8D2;strokeColor=none;noLabel=1;fontFamily=Google Sans;fontSource=https%3A%2F%2Ffonts.googleapis.com%2Fcss%3Ffamily%3DGoogle%2BSans;" parent="1" vertex="1">
            <mxGeometry x="123" y="432.0616918028243" width="4" height="4" as="geometry" />
          </mxCell>
        </object>
        <object label="rate" source="leaf1:ethernet-1/1:client1:eth1" target="mid:leaf1:ethernet-1/1:client1:eth1" id="link_id:leaf1:ethernet-1/1:client1:eth1">
          <mxCell style="rounded=0;orthogonalLoop=1;html=1;startSize=6;endArrow=classicThin;endFill=1;endSize=2;fontSize=12;strokeColor=#bec8d2;fontColor=#FFFFFF;textOpacity=60;labelBackgroundColor=#4D5766;jumpStyle=gap;strokeWidth=3;fontFamily=Google Sans;fontSource=https%3A%2F%2Ffonts.googleapis.com%2Fcss%3Ffamily%3DGoogle%2BSans;" parent="1" source="leaf1:ethernet-1/1:client1:eth1" target="mid:leaf1:ethernet-1/1:client1:eth1" edge="1">
            <mxGeometry relative="1" as="geometry" />
          </mxCell>
        </object>
        <object label="rate" source="client1:eth1:leaf1:ethernet-1/1" target="mid:leaf1:ethernet-1/1:client1:eth1" id="link_id:client1:eth1:leaf1:ethernet-1/1">
          <mxCell style="rounded=0;orthogonalLoop=1;html=1;startSize=6;endArrow=classicThin;endFill=1;endSize=2;fontSize=12;strokeColor=#bec8d2;fontColor=#FFFFFF;textOpacity=60;labelBackgroundColor=#4D5766;jumpStyle=gap;strokeWidth=3;fontFamily=Google Sans;fontSource=https%3A%2F%2Ffonts.googleapis.com%2Fcss%3Ffamily%3DGoogle%2BSans;" parent="1" source="client1:eth1:leaf1:ethernet-1/1" target="mid:leaf1:ethernet-1/1:client1:eth1" edge="1">
            <mxGeometry relative="1" as="geometry" />
          </mxCell>
        </object>
        <object label="​" id="mid:leaf1:ethernet-1/2:client2:eth1">
          <mxCell style="ellipse;whiteSpace=wrap;html=1;aspect=fixed;fontColor=#FFFFFF;fontSize=6;fillColor=#BEC8D2;strokeColor=none;noLabel=1;fontFamily=Google Sans;fontSource=https%3A%2F%2Ffonts.googleapis.com%2Fcss%3Ffamily%3DGoogle%2BSans;" parent="1" vertex="1">
            <mxGeometry x="221.00106399191057" y="432.06255332659214" width="4" height="4" as="geometry" />
          </mxCell>
        </object>
        <object label="rate" source="leaf1:ethernet-1/2:client2:eth1" target="mid:leaf1:ethernet-1/2:client2:eth1" id="link_id:leaf1:ethernet-1/2:client2:eth1">
          <mxCell style="rounded=0;orthogonalLoop=1;html=1;startSize=6;endArrow=classicThin;endFill=1;endSize=2;fontSize=12;strokeColor=#bec8d2;fontColor=#FFFFFF;textOpacity=60;labelBackgroundColor=#4D5766;jumpStyle=gap;strokeWidth=3;fontFamily=Google Sans;fontSource=https%3A%2F%2Ffonts.googleapis.com%2Fcss%3Ffamily%3DGoogle%2BSans;" parent="1" source="leaf1:ethernet-1/2:client2:eth1" target="mid:leaf1:ethernet-1/2:client2:eth1" edge="1">
            <mxGeometry relative="1" as="geometry" />
          </mxCell>
        </object>
        <object label="rate" source="client2:eth1:leaf1:ethernet-1/2" target="mid:leaf1:ethernet-1/2:client2:eth1" id="link_id:client2:eth1:leaf1:ethernet-1/2">
          <mxCell style="rounded=0;orthogonalLoop=1;html=1;startSize=6;endArrow=classicThin;endFill=1;endSize=2;fontSize=12;strokeColor=light-dark(#bdc8d2, #5c646e);fontColor=#FFFFFF;textOpacity=60;labelBackgroundColor=#4D5766;jumpStyle=gap;strokeWidth=3;fontFamily=Google Sans;fontSource=https%3A%2F%2Ffonts.googleapis.com%2Fcss%3Ffamily%3DGoogle%2BSans;" parent="1" source="client2:eth1:leaf1:ethernet-1/2" target="mid:leaf1:ethernet-1/2:client2:eth1" edge="1">
            <mxGeometry relative="1" as="geometry" />
          </mxCell>
        </object>
        <object label="​" id="mid:leaf2:ethernet-1/1:client1:eth2">
          <mxCell style="ellipse;whiteSpace=wrap;html=1;aspect=fixed;fontColor=#FFFFFF;fontSize=6;fillColor=#BEC8D2;strokeColor=none;noLabel=1;fontFamily=Google Sans;fontSource=https%3A%2F%2Ffonts.googleapis.com%2Fcss%3Ffamily%3DGoogle%2BSans;" parent="1" vertex="1">
            <mxGeometry x="221.00467908096732" y="432.0044340991939" width="4" height="4" as="geometry" />
          </mxCell>
        </object>
        <object label="rate" source="leaf2:ethernet-1/1:client1:eth2" target="mid:leaf2:ethernet-1/1:client1:eth2" id="link_id:leaf2:ethernet-1/1:client1:eth2">
          <mxCell style="rounded=0;orthogonalLoop=1;html=1;startSize=6;endArrow=classicThin;endFill=1;endSize=2;fontSize=12;strokeColor=#bec8d2;fontColor=#FFFFFF;textOpacity=60;labelBackgroundColor=#4D5766;jumpStyle=gap;strokeWidth=3;fontFamily=Google Sans;fontSource=https%3A%2F%2Ffonts.googleapis.com%2Fcss%3Ffamily%3DGoogle%2BSans;" parent="1" source="leaf2:ethernet-1/1:client1:eth2" target="mid:leaf2:ethernet-1/1:client1:eth2" edge="1">
            <mxGeometry relative="1" as="geometry" />
          </mxCell>
        </object>
        <object label="rate" source="client1:eth2:leaf2:ethernet-1/1" target="mid:leaf2:ethernet-1/1:client1:eth2" id="link_id:client1:eth2:leaf2:ethernet-1/1">
          <mxCell style="rounded=0;orthogonalLoop=1;html=1;startSize=6;endArrow=classicThin;endFill=1;endSize=2;fontSize=12;strokeColor=#bec8d2;fontColor=#FFFFFF;textOpacity=60;labelBackgroundColor=#4D5766;jumpStyle=gap;strokeWidth=3;fontFamily=Google Sans;fontSource=https%3A%2F%2Ffonts.googleapis.com%2Fcss%3Ffamily%3DGoogle%2BSans;" parent="1" source="client1:eth2:leaf2:ethernet-1/1" target="mid:leaf2:ethernet-1/1:client1:eth2" edge="1">
            <mxGeometry relative="1" as="geometry" />
          </mxCell>
        </object>
        <object label="​" id="mid:leaf2:ethernet-1/2:client2:eth2">
          <mxCell style="ellipse;whiteSpace=wrap;html=1;aspect=fixed;fontColor=#FFFFFF;fontSize=6;fillColor=#BEC8D2;strokeColor=none;noLabel=1;fontFamily=Google Sans;fontSource=https%3A%2F%2Ffonts.googleapis.com%2Fcss%3Ffamily%3DGoogle%2BSans;" parent="1" vertex="1">
            <mxGeometry x="323" y="432.00889125169203" width="4" height="4" as="geometry" />
          </mxCell>
        </object>
        <object label="rate" source="leaf2:ethernet-1/2:client2:eth2" target="mid:leaf2:ethernet-1/2:client2:eth2" id="link_id:leaf2:ethernet-1/2:client2:eth2">
          <mxCell style="rounded=0;orthogonalLoop=1;html=1;startSize=6;endArrow=classicThin;endFill=1;endSize=2;fontSize=12;strokeColor=#bec8d2;fontColor=#FFFFFF;textOpacity=60;labelBackgroundColor=#4D5766;jumpStyle=gap;strokeWidth=3;fontFamily=Google Sans;fontSource=https%3A%2F%2Ffonts.googleapis.com%2Fcss%3Ffamily%3DGoogle%2BSans;" parent="1" source="leaf2:ethernet-1/2:client2:eth2" target="mid:leaf2:ethernet-1/2:client2:eth2" edge="1">
            <mxGeometry relative="1" as="geometry" />
          </mxCell>
        </object>
        <object label="rate" source="client2:eth2:leaf2:ethernet-1/2" target="mid:leaf2:ethernet-1/2:client2:eth2" id="link_id:client2:eth2:leaf2:ethernet-1/2">
          <mxCell style="rounded=0;orthogonalLoop=1;html=1;startSize=6;endArrow=classicThin;endFill=1;endSize=2;fontSize=12;strokeColor=#bec8d2;fontColor=#FFFFFF;textOpacity=60;labelBackgroundColor=#4D5766;jumpStyle=gap;strokeWidth=3;fontFamily=Google Sans;fontSource=https%3A%2F%2Ffonts.googleapis.com%2Fcss%3Ffamily%3DGoogle%2BSans;" parent="1" source="client2:eth2:leaf2:ethernet-1/2" target="mid:leaf2:ethernet-1/2:client2:eth2" edge="1">
            <mxGeometry relative="1" as="geometry" />
          </mxCell>
        </object>
        <object label="​" id="mid:leaf3:ethernet-1/1:client3:eth1">
          <mxCell style="ellipse;whiteSpace=wrap;html=1;aspect=fixed;fontColor=#FFFFFF;fontSize=6;fillColor=#BEC8D2;strokeColor=none;noLabel=1;fontFamily=Google Sans;fontSource=https%3A%2F%2Ffonts.googleapis.com%2Fcss%3Ffamily%3DGoogle%2BSans;" parent="1" vertex="1">
            <mxGeometry x="473" y="432.00711760739523" width="4" height="4" as="geometry" />
          </mxCell>
        </object>
        <object label="rate" source="leaf3:ethernet-1/1:client3:eth1" target="mid:leaf3:ethernet-1/1:client3:eth1" id="link_id:leaf3:ethernet-1/1:client3:eth1">
          <mxCell style="rounded=0;orthogonalLoop=1;html=1;startSize=6;endArrow=classicThin;endFill=1;endSize=2;fontSize=12;strokeColor=#bec8d2;fontColor=#FFFFFF;textOpacity=60;labelBackgroundColor=#4D5766;jumpStyle=gap;strokeWidth=3;fontFamily=Google Sans;fontSource=https%3A%2F%2Ffonts.googleapis.com%2Fcss%3Ffamily%3DGoogle%2BSans;" parent="1" source="leaf3:ethernet-1/1:client3:eth1" target="mid:leaf3:ethernet-1/1:client3:eth1" edge="1">
            <mxGeometry relative="1" as="geometry" />
          </mxCell>
        </object>
        <object label="rate" source="client3:eth1:leaf3:ethernet-1/1" target="mid:leaf3:ethernet-1/1:client3:eth1" id="link_id:client3:eth1:leaf3:ethernet-1/1">
          <mxCell style="rounded=0;orthogonalLoop=1;html=1;startSize=6;endArrow=classicThin;endFill=1;endSize=2;fontSize=12;strokeColor=#bec8d2;fontColor=#FFFFFF;textOpacity=60;labelBackgroundColor=#4D5766;jumpStyle=gap;strokeWidth=3;fontFamily=Google Sans;fontSource=https%3A%2F%2Ffonts.googleapis.com%2Fcss%3Ffamily%3DGoogle%2BSans;" parent="1" source="client3:eth1:leaf3:ethernet-1/1" target="mid:leaf3:ethernet-1/1:client3:eth1" edge="1">
            <mxGeometry relative="1" as="geometry" />
          </mxCell>
        </object>
        <object label="​" id="mid:leaf3:ethernet-1/2:client4:eth1">
          <mxCell style="ellipse;whiteSpace=wrap;html=1;aspect=fixed;fontColor=#FFFFFF;fontSize=6;fillColor=#BEC8D2;strokeColor=none;noLabel=1;fontFamily=Google Sans;fontSource=https%3A%2F%2Ffonts.googleapis.com%2Fcss%3Ffamily%3DGoogle%2BSans;" parent="1" vertex="1">
            <mxGeometry x="577.4448806842291" y="431.9974005701909" width="4" height="4" as="geometry" />
          </mxCell>
        </object>
        <object label="rate" source="leaf3:ethernet-1/2:client4:eth1" target="mid:leaf3:ethernet-1/2:client4:eth1" id="link_id:leaf3:ethernet-1/2:client4:eth1">
          <mxCell style="rounded=0;orthogonalLoop=1;html=1;startSize=6;endArrow=classicThin;endFill=1;endSize=2;fontSize=12;strokeColor=#bec8d2;fontColor=#FFFFFF;textOpacity=60;labelBackgroundColor=#4D5766;jumpStyle=gap;strokeWidth=3;fontFamily=Google Sans;fontSource=https%3A%2F%2Ffonts.googleapis.com%2Fcss%3Ffamily%3DGoogle%2BSans;" parent="1" source="leaf3:ethernet-1/2:client4:eth1" target="mid:leaf3:ethernet-1/2:client4:eth1" edge="1">
            <mxGeometry relative="1" as="geometry" />
          </mxCell>
        </object>
        <object label="rate" source="client4:eth1:leaf3:ethernet-1/2" target="mid:leaf3:ethernet-1/2:client4:eth1" id="link_id:client4:eth1:leaf3:ethernet-1/2">
          <mxCell style="rounded=0;orthogonalLoop=1;html=1;startSize=6;endArrow=classicThin;endFill=1;endSize=2;fontSize=12;strokeColor=#bec8d2;fontColor=#FFFFFF;textOpacity=60;labelBackgroundColor=#4D5766;jumpStyle=gap;strokeWidth=3;fontFamily=Google Sans;fontSource=https%3A%2F%2Ffonts.googleapis.com%2Fcss%3Ffamily%3DGoogle%2BSans;" parent="1" source="client4:eth1:leaf3:ethernet-1/2" target="mid:leaf3:ethernet-1/2:client4:eth1" edge="1">
            <mxGeometry relative="1" as="geometry" />
          </mxCell>
        </object>
        <object label="​" id="mid:leaf4:ethernet-1/1:client3:eth2">
          <mxCell style="ellipse;whiteSpace=wrap;html=1;aspect=fixed;fontColor=#FFFFFF;fontSize=6;fillColor=#BEC8D2;strokeColor=none;noLabel=1;fontFamily=Google Sans;fontSource=https%3A%2F%2Ffonts.googleapis.com%2Fcss%3Ffamily%3DGoogle%2BSans;" parent="1" vertex="1">
            <mxGeometry x="577.4484795273763" y="431.99960039385303" width="4" height="4" as="geometry" />
          </mxCell>
        </object>
        <object label="rate" source="leaf4:ethernet-1/1:client3:eth2" target="mid:leaf4:ethernet-1/1:client3:eth2" id="link_id:leaf4:ethernet-1/1:client3:eth2">
          <mxCell style="rounded=0;orthogonalLoop=1;html=1;startSize=6;endArrow=classicThin;endFill=1;endSize=2;fontSize=12;strokeColor=#bec8d2;fontColor=#FFFFFF;textOpacity=60;labelBackgroundColor=#4D5766;jumpStyle=gap;strokeWidth=3;fontFamily=Google Sans;fontSource=https%3A%2F%2Ffonts.googleapis.com%2Fcss%3Ffamily%3DGoogle%2BSans;" parent="1" source="leaf4:ethernet-1/1:client3:eth2" target="mid:leaf4:ethernet-1/1:client3:eth2" edge="1">
            <mxGeometry relative="1" as="geometry" />
          </mxCell>
        </object>
        <object label="rate" source="client3:eth2:leaf4:ethernet-1/1" target="mid:leaf4:ethernet-1/1:client3:eth2" id="link_id:client3:eth2:leaf4:ethernet-1/1">
          <mxCell style="rounded=0;orthogonalLoop=1;html=1;startSize=6;endArrow=classicThin;endFill=1;endSize=2;fontSize=12;strokeColor=#bec8d2;fontColor=#FFFFFF;textOpacity=60;labelBackgroundColor=#4D5766;jumpStyle=gap;strokeWidth=3;fontFamily=Google Sans;fontSource=https%3A%2F%2Ffonts.googleapis.com%2Fcss%3Ffamily%3DGoogle%2BSans;" parent="1" source="client3:eth2:leaf4:ethernet-1/1" target="mid:leaf4:ethernet-1/1:client3:eth2" edge="1">
            <mxGeometry relative="1" as="geometry" />
          </mxCell>
        </object>
        <object label="​" id="mid:leaf4:ethernet-1/2:client4:eth2">
          <mxCell style="ellipse;whiteSpace=wrap;html=1;aspect=fixed;fontColor=#FFFFFF;fontSize=6;fillColor=#BEC8D2;strokeColor=none;noLabel=1;fontFamily=Google Sans;fontSource=https%3A%2F%2Ffonts.googleapis.com%2Fcss%3Ffamily%3DGoogle%2BSans;" parent="1" vertex="1">
            <mxGeometry x="673" y="432.06342884184704" width="4" height="4" as="geometry" />
          </mxCell>
        </object>
        <object label="rate" source="leaf4:ethernet-1/2:client4:eth2" target="mid:leaf4:ethernet-1/2:client4:eth2" id="link_id:leaf4:ethernet-1/2:client4:eth2">
          <mxCell style="rounded=0;orthogonalLoop=1;html=1;startSize=6;endArrow=classicThin;endFill=1;endSize=2;fontSize=12;strokeColor=#bec8d2;fontColor=#FFFFFF;textOpacity=60;labelBackgroundColor=#4D5766;jumpStyle=gap;strokeWidth=3;fontFamily=Google Sans;fontSource=https%3A%2F%2Ffonts.googleapis.com%2Fcss%3Ffamily%3DGoogle%2BSans;" parent="1" source="leaf4:ethernet-1/2:client4:eth2" target="mid:leaf4:ethernet-1/2:client4:eth2" edge="1">
            <mxGeometry relative="1" as="geometry" />
          </mxCell>
        </object>
        <object label="rate" source="client4:eth2:leaf4:ethernet-1/2" target="mid:leaf4:ethernet-1/2:client4:eth2" id="link_id:client4:eth2:leaf4:ethernet-1/2">
          <mxCell style="rounded=0;orthogonalLoop=1;html=1;startSize=6;endArrow=classicThin;endFill=1;endSize=2;fontSize=12;strokeColor=#bec8d2;fontColor=#FFFFFF;textOpacity=60;labelBackgroundColor=#4D5766;jumpStyle=gap;strokeWidth=3;fontFamily=Google Sans;fontSource=https%3A%2F%2Ffonts.googleapis.com%2Fcss%3Ffamily%3DGoogle%2BSans;" parent="1" source="client4:eth2:leaf4:ethernet-1/2" target="mid:leaf4:ethernet-1/2:client4:eth2" edge="1">
            <mxGeometry relative="1" as="geometry" />
          </mxCell>
        </object>
        <mxCell id="group-spine1" value="" style="group;fontSize=12;fontColor=#000000;fontFamily=Google Sans;fontSource=https%3A%2F%2Ffonts.googleapis.com%2Fcss%3Ffamily%3DGoogle%2BSans;" parent="1" vertex="1" connectable="0">
          <mxGeometry x="275" y="75" width="75" height="82.5" as="geometry" />
        </mxCell>
        <object label="spine1" id="spine1">
          <mxCell style="shape=image;imageAlign=center;imageVerticalAlign=middle;labelPosition=left;align=right;verticalLabelPosition=top;spacingLeft=0;verticalAlign=bottom;spacingTop=0;spacing=0;fontColor=default;editableCssRules=\.st[0-2]$;labelBackgroundColor=none;aspect=fixed;imageAspect=0;image=data:image/svg+xml,PHN2ZyB4bWxuczp4bGluaz0iaHR0cDovL3d3dy53My5vcmcvMTk5OS94bGluayIgeG1sbnM9Imh0dHA6Ly93d3cudzMub3JnLzIwMDAvc3ZnIiB4bWw6c3BhY2U9InByZXNlcnZlIiBzdHlsZT0iZW5hYmxlLWJhY2tncm91bmQ6bmV3IDAgMCAxMjAgMTIwO2VkaXRhYmxlQ3NzUnVsZXM9Lio7IiB2aWV3Qm94PSIwIDAgMTIwIDEyMCIgeT0iMHB4IiB4PSIwcHgiIGlkPSJMYXllcl8xIiB2ZXJzaW9uPSIxLjEiPiYjeGE7PHN0eWxlIHR5cGU9InRleHQvY3NzIj4uc3QwIHsgZmlsbDogcmdiKDAsIDAsIDI1NSk7IH0gLnN0MSB7IGZpbGw6IG5vbmU7IHN0cm9rZTogcmdiKDI1NSwgMjU1LCAyNTUpOyBzdHJva2Utd2lkdGg6IDQ7IHN0cm9rZS1saW5lY2FwOiByb3VuZDsgc3Ryb2tlLWxpbmVqb2luOiByb3VuZDsgc3Ryb2tlLW1pdGVybGltaXQ6IDEwOyB9IC5zdDIgeyBmaWxsOiByZ2IoMjU1LCAyNTUsIDI1NSk7IH0gLnN0MyB7IGZpbGw6IG5vbmU7IHN0cm9rZTogcmdiKDI1NSwgMjU1LCAyNTUpOyBzdHJva2Utd2lkdGg6IDQ7IHN0cm9rZS1taXRlcmxpbWl0OiAxMDsgfSAuc3Q0IHsgZmlsbDogbm9uZTsgc3Ryb2tlOiByZ2IoMjU1LCAyNTUsIDI1NSk7IHN0cm9rZS13aWR0aDogNDsgc3Ryb2tlLWxpbmVjYXA6IHJvdW5kOyBzdHJva2UtbGluZWpvaW46IHJvdW5kOyB9IC5zdDUgeyBmaWxsOiByZ2IoMjU1LCAyNTUsIDI1NSk7IHN0cm9rZTogcmdiKDI1NSwgMjU1LCAyNTUpOyBzdHJva2Utd2lkdGg6IDQ7IHN0cm9rZS1saW5lY2FwOiByb3VuZDsgc3Ryb2tlLWxpbmVqb2luOiByb3VuZDsgc3Ryb2tlLW1pdGVybGltaXQ6IDEwOyB9IC5zdDYgeyBmaWxsOiBub25lOyBzdHJva2U6IHJnYigyNTUsIDI1NSwgMjU1KTsgc3Ryb2tlLXdpZHRoOiA0LjIzMzM7IHN0cm9rZS1saW5lY2FwOiByb3VuZDsgc3Ryb2tlLWxpbmVqb2luOiByb3VuZDsgc3Ryb2tlLW1pdGVybGltaXQ6IDEwOyB9IC5zdDcgeyBmaWxsOiBub25lOyBzdHJva2U6IHJnYigyNTUsIDI1NSwgMjU1KTsgc3Ryb2tlLXdpZHRoOiA0OyBzdHJva2UtbGluZWNhcDogcm91bmQ7IHN0cm9rZS1taXRlcmxpbWl0OiAxMDsgfSAuc3Q4IHsgZmlsbDogcmdiKDI1NSwgMjU1LCAyNTUpOyBzdHJva2U6IHJnYigyNTUsIDI1NSwgMjU1KTsgc3Ryb2tlLXdpZHRoOiA0OyBzdHJva2UtbWl0ZXJsaW1pdDogMTA7IH0gLnN0OSB7IGZpbGw6IHJnYigyNTUsIDI1NSwgMjU1KTsgc3Ryb2tlOiByZ2IoMjU1LCAyNTUsIDI1NSk7IHN0cm9rZS13aWR0aDogNDsgfSAuc3QxMCB7IGZpbGw6IG5vbmU7IHN0cm9rZTogcmdiKDI1NSwgMjU1LCAyNTUpOyBzdHJva2Utd2lkdGg6IDQ7IH0gLnN0MTEgeyBmaWxsOiByZ2IoMzgsIDM4LCAzOCk7IHN0cm9rZTogcmdiKDI1NSwgMjU1LCAyNTUpOyBzdHJva2Utd2lkdGg6IDQuMjMzMzsgfSAuc3QxMiB7IGZpbGwtcnVsZTogZXZlbm9kZDsgY2xpcC1ydWxlOiBldmVub2RkOyBmaWxsOiBub25lOyBzdHJva2U6IHJnYigyNTUsIDI1NSwgMjU1KTsgc3Ryb2tlLXdpZHRoOiA0OyBzdHJva2UtbWl0ZXJsaW1pdDogMTA7IH0gLnN0MTMgeyBmaWxsLXJ1bGU6IGV2ZW5vZGQ7IGNsaXAtcnVsZTogZXZlbm9kZDsgZmlsbDogcmdiKDI1NSwgMjU1LCAyNTUpOyBzdHJva2U6IHJnYigyNTUsIDI1NSwgMjU1KTsgc3Ryb2tlLXdpZHRoOiA0OyB9IC5zdDE0IHsgZmlsbDogbm9uZTsgc3Ryb2tlOiByZ2IoMjU1LCAyNTUsIDI1NSk7IHN0cm9rZS13aWR0aDogNC4yMzMzOyBzdHJva2UtbGluZWNhcDogcm91bmQ7IHN0cm9rZS1saW5lam9pbjogcm91bmQ7IH0gLnN0MTUgeyBmaWxsOiBub25lOyBzdHJva2U6IHJnYigyNTUsIDI1NSwgMjU1KTsgc3Ryb2tlLXdpZHRoOiA0OyBzdHJva2UtbGluZWNhcDogcm91bmQ7IH0gLnN0MTYgeyBmaWxsOiByZ2IoMjU1LCAyNTUsIDI1NSk7IHN0cm9rZTogcmdiKDI1NSwgMjU1LCAyNTUpOyBzdHJva2UtbWl0ZXJsaW1pdDogMTA7IH0gLnN0MTcgeyBmaWxsOiByZ2IoMzgsIDM4LCAzOCk7IHN0cm9rZTogcmdiKDI1NSwgMjU1LCAyNTUpOyBzdHJva2Utd2lkdGg6IDQ7IHN0cm9rZS1taXRlcmxpbWl0OiAxMDsgfSAuc3QxOCB7IGZpbGw6IHJnYigyNTUsIDI1NSwgMjU1KTsgc3Ryb2tlOiByZ2IoMjU1LCAyNTUsIDI1NSk7IHN0cm9rZS13aWR0aDogNDsgc3Ryb2tlLWxpbmVjYXA6IHJvdW5kOyBzdHJva2UtbGluZWpvaW46IHJvdW5kOyB9IDwvc3R5bGU+JiN4YTs8cmVjdCBoZWlnaHQ9IjEyMCIgd2lkdGg9IjEyMCIgY2xhc3M9InN0MCIvPiYjeGE7PGc+JiN4YTsJPGc+JiN4YTsJCTxwYXRoIGQ9Ik03MS43LDE5LjdWNDhoMjgiIGNsYXNzPSJzdDEiLz4mI3hhOwkJPHBhdGggZD0iTTkxLjIsMzguNWw3LjUsNy42YzEuMywxLjMsMS4zLDMuMSwwLDQuM0w5MS4xLDU4IiBjbGFzcz0ic3QxIi8+JiN4YTsJPC9nPiYjeGE7CTxnPiYjeGE7CQk8cGF0aCBkPSJNMjAsNDcuOGgyOC40di0yOCIgY2xhc3M9InN0MSIvPiYjeGE7CQk8cGF0aCBkPSJNMzguOCwyOC4zbDcuNi03LjVjMS4zLTEuMywzLjEtMS4zLDQuMywwbDcuNyw3LjYiIGNsYXNzPSJzdDEiLz4mI3hhOwk8L2c+JiN4YTsJPGc+JiN4YTsJCTxwYXRoIGQ9Ik00OCwxMDAuM1Y3MkgyMCIgY2xhc3M9InN0MSIvPiYjeGE7CQk8cGF0aCBkPSJNMjguNSw4MS41TDIxLDczLjljLTEuMy0xLjMtMS4zLTMuMSwwLTQuM2w3LjYtNy43IiBjbGFzcz0ic3QxIi8+JiN4YTsJPC9nPiYjeGE7CTxnPiYjeGE7CQk8cGF0aCBkPSJNMTAwLDcxLjlINzEuNnYyOCIgY2xhc3M9InN0MSIvPiYjeGE7CQk8cGF0aCBkPSJNODEuMiw5MS40bC03LjYsNy41Yy0xLjMsMS4zLTMuMSwxLjMtNC4zLDBsLTcuNy03LjYiIGNsYXNzPSJzdDEiLz4mI3hhOwk8L2c+JiN4YTs8L2c+JiN4YTs8L3N2Zz4=;fontSize=14;fontFamily=Google Sans;fontSource=https%3A%2F%2Ffonts.googleapis.com%2Fcss%3Ffamily%3DGoogle%2BSans;" parent="group-spine1" vertex="1">
            <mxGeometry width="75" height="75" as="geometry" />
          </mxCell>
        </object>
        <object label="&lt;font style=&quot;font-size: 10px;&quot;&gt;1&lt;/font&gt;" id="spine1:ethernet-1/1:leaf1:ethernet-1/49">
          <mxCell style="ellipse;whiteSpace=wrap;html=1;aspect=fixed;fontColor=#FFFFFF;fontSize=10;strokeColor=#98A2AE;fillColor=#bec8d2;align=center;textDirection=ltr;fontFamily=Google Sans;fontSource=https%3A%2F%2Ffonts.googleapis.com%2Fcss%3Ffamily%3DGoogle%2BSans;" parent="group-spine1" vertex="1">
            <mxGeometry x="7.5" y="67.5" width="15" height="15" as="geometry" />
          </mxCell>
        </object>
        <object label="2" id="spine1:ethernet-1/2:leaf2:ethernet-1/49">
          <mxCell style="ellipse;whiteSpace=wrap;html=1;aspect=fixed;fontColor=#FFFFFF;fontSize=10;strokeColor=#98A2AE;fillColor=#BEC8D2;fontFamily=Google Sans;fontSource=https%3A%2F%2Ffonts.googleapis.com%2Fcss%3Ffamily%3DGoogle%2BSans;" parent="group-spine1" vertex="1">
            <mxGeometry x="22.5" y="67.5" width="15" height="15" as="geometry" />
          </mxCell>
        </object>
        <object label="3" id="spine1:ethernet-1/3:leaf3:ethernet-1/49">
          <mxCell style="ellipse;whiteSpace=wrap;html=1;aspect=fixed;fontColor=#FFFFFF;fontSize=10;strokeColor=#98A2AE;fillColor=#BEC8D2;fontFamily=Google Sans;fontSource=https%3A%2F%2Ffonts.googleapis.com%2Fcss%3Ffamily%3DGoogle%2BSans;" parent="group-spine1" vertex="1">
            <mxGeometry x="37.5" y="67.5" width="15" height="15" as="geometry" />
          </mxCell>
        </object>
        <object label="4" id="spine1:ethernet-1/4:leaf4:ethernet-1/49">
          <mxCell style="ellipse;whiteSpace=wrap;html=1;aspect=fixed;fontColor=#FFFFFF;fontSize=10;strokeColor=#98A2AE;fillColor=#BEC8D2;fontFamily=Google Sans;fontSource=https%3A%2F%2Ffonts.googleapis.com%2Fcss%3Ffamily%3DGoogle%2BSans;" parent="group-spine1" vertex="1">
            <mxGeometry x="52.5" y="67.5" width="15" height="15" as="geometry" />
          </mxCell>
        </object>
        <mxCell id="group-leaf1" value="" style="group;fontFamily=Google Sans;fontSource=https%3A%2F%2Ffonts.googleapis.com%2Fcss%3Ffamily%3DGoogle%2BSans;" parent="1" vertex="1" connectable="0">
          <mxGeometry x="100" y="292.5" width="75" height="90" as="geometry" />
        </mxCell>
        <object label="leaf1" id="leaf1">
          <mxCell style="shape=image;imageAlign=center;imageVerticalAlign=middle;labelPosition=left;align=right;verticalLabelPosition=top;spacingLeft=0;verticalAlign=bottom;spacingTop=0;spacing=0;fontColor=default;editableCssRules=\.st[0-2]$;labelBackgroundColor=none;aspect=fixed;imageAspect=0;image=data:image/svg+xml,PHN2ZyB4bWxuczp4bGluaz0iaHR0cDovL3d3dy53My5vcmcvMTk5OS94bGluayIgeG1sbnM9Imh0dHA6Ly93d3cudzMub3JnLzIwMDAvc3ZnIiB4bWw6c3BhY2U9InByZXNlcnZlIiBzdHlsZT0iZW5hYmxlLWJhY2tncm91bmQ6bmV3IDAgMCAxMjAgMTIwO2VkaXRhYmxlQ3NzUnVsZXM9Lio7IiB2aWV3Qm94PSIwIDAgMTIwIDEyMCIgeT0iMHB4IiB4PSIwcHgiIGlkPSJMYXllcl8xIiB2ZXJzaW9uPSIxLjEiPiYjeGE7PHN0eWxlIHR5cGU9InRleHQvY3NzIj4uc3QwIHsgZmlsbDogcmdiKDIzMCwgMTI2LCAzNCk7IH0gLnN0MSB7IGZpbGw6IG5vbmU7IHN0cm9rZTogcmdiKDI1NSwgMjU1LCAyNTUpOyBzdHJva2Utd2lkdGg6IDQ7IHN0cm9rZS1saW5lY2FwOiByb3VuZDsgc3Ryb2tlLWxpbmVqb2luOiByb3VuZDsgc3Ryb2tlLW1pdGVybGltaXQ6IDEwOyB9IC5zdDIgeyBmaWxsOiByZ2IoMjU1LCAyNTUsIDI1NSk7IH0gLnN0MyB7IGZpbGw6IG5vbmU7IHN0cm9rZTogcmdiKDI1NSwgMjU1LCAyNTUpOyBzdHJva2Utd2lkdGg6IDQ7IHN0cm9rZS1taXRlcmxpbWl0OiAxMDsgfSAuc3Q0IHsgZmlsbDogbm9uZTsgc3Ryb2tlOiByZ2IoMjU1LCAyNTUsIDI1NSk7IHN0cm9rZS13aWR0aDogNDsgc3Ryb2tlLWxpbmVjYXA6IHJvdW5kOyBzdHJva2UtbGluZWpvaW46IHJvdW5kOyB9IC5zdDUgeyBmaWxsOiByZ2IoMjU1LCAyNTUsIDI1NSk7IHN0cm9rZTogcmdiKDI1NSwgMjU1LCAyNTUpOyBzdHJva2Utd2lkdGg6IDQ7IHN0cm9rZS1saW5lY2FwOiByb3VuZDsgc3Ryb2tlLWxpbmVqb2luOiByb3VuZDsgc3Ryb2tlLW1pdGVybGltaXQ6IDEwOyB9IC5zdDYgeyBmaWxsOiBub25lOyBzdHJva2U6IHJnYigyNTUsIDI1NSwgMjU1KTsgc3Ryb2tlLXdpZHRoOiA0LjIzMzM7IHN0cm9rZS1saW5lY2FwOiByb3VuZDsgc3Ryb2tlLWxpbmVqb2luOiByb3VuZDsgc3Ryb2tlLW1pdGVybGltaXQ6IDEwOyB9IC5zdDcgeyBmaWxsOiBub25lOyBzdHJva2U6IHJnYigyNTUsIDI1NSwgMjU1KTsgc3Ryb2tlLXdpZHRoOiA0OyBzdHJva2UtbGluZWNhcDogcm91bmQ7IHN0cm9rZS1taXRlcmxpbWl0OiAxMDsgfSAuc3Q4IHsgZmlsbDogcmdiKDI1NSwgMjU1LCAyNTUpOyBzdHJva2U6IHJnYigyNTUsIDI1NSwgMjU1KTsgc3Ryb2tlLXdpZHRoOiA0OyBzdHJva2UtbWl0ZXJsaW1pdDogMTA7IH0gLnN0OSB7IGZpbGw6IHJnYigyNTUsIDI1NSwgMjU1KTsgc3Ryb2tlOiByZ2IoMjU1LCAyNTUsIDI1NSk7IHN0cm9rZS13aWR0aDogNDsgfSAuc3QxMCB7IGZpbGw6IG5vbmU7IHN0cm9rZTogcmdiKDI1NSwgMjU1LCAyNTUpOyBzdHJva2Utd2lkdGg6IDQ7IH0gLnN0MTEgeyBmaWxsOiByZ2IoMzgsIDM4LCAzOCk7IHN0cm9rZTogcmdiKDI1NSwgMjU1LCAyNTUpOyBzdHJva2Utd2lkdGg6IDQuMjMzMzsgfSAuc3QxMiB7IGZpbGwtcnVsZTogZXZlbm9kZDsgY2xpcC1ydWxlOiBldmVub2RkOyBmaWxsOiBub25lOyBzdHJva2U6IHJnYigyNTUsIDI1NSwgMjU1KTsgc3Ryb2tlLXdpZHRoOiA0OyBzdHJva2UtbWl0ZXJsaW1pdDogMTA7IH0gLnN0MTMgeyBmaWxsLXJ1bGU6IGV2ZW5vZGQ7IGNsaXAtcnVsZTogZXZlbm9kZDsgZmlsbDogcmdiKDI1NSwgMjU1LCAyNTUpOyBzdHJva2U6IHJnYigyNTUsIDI1NSwgMjU1KTsgc3Ryb2tlLXdpZHRoOiA0OyB9IC5zdDE0IHsgZmlsbDogbm9uZTsgc3Ryb2tlOiByZ2IoMjU1LCAyNTUsIDI1NSk7IHN0cm9rZS13aWR0aDogNC4yMzMzOyBzdHJva2UtbGluZWNhcDogcm91bmQ7IHN0cm9rZS1saW5lam9pbjogcm91bmQ7IH0gLnN0MTUgeyBmaWxsOiBub25lOyBzdHJva2U6IHJnYigyNTUsIDI1NSwgMjU1KTsgc3Ryb2tlLXdpZHRoOiA0OyBzdHJva2UtbGluZWNhcDogcm91bmQ7IH0gLnN0MTYgeyBmaWxsOiByZ2IoMjU1LCAyNTUsIDI1NSk7IHN0cm9rZTogcmdiKDI1NSwgMjU1LCAyNTUpOyBzdHJva2UtbWl0ZXJsaW1pdDogMTA7IH0gLnN0MTcgeyBmaWxsOiByZ2IoMzgsIDM4LCAzOCk7IHN0cm9rZTogcmdiKDI1NSwgMjU1LCAyNTUpOyBzdHJva2Utd2lkdGg6IDQ7IHN0cm9rZS1taXRlcmxpbWl0OiAxMDsgfSAuc3QxOCB7IGZpbGw6IHJnYigyNTUsIDI1NSwgMjU1KTsgc3Ryb2tlOiByZ2IoMjU1LCAyNTUsIDI1NSk7IHN0cm9rZS13aWR0aDogNDsgc3Ryb2tlLWxpbmVjYXA6IHJvdW5kOyBzdHJva2UtbGluZWpvaW46IHJvdW5kOyB9IDwvc3R5bGU+JiN4YTs8cmVjdCBoZWlnaHQ9IjEyMCIgd2lkdGg9IjEyMCIgY2xhc3M9InN0MCIvPiYjeGE7PGc+JiN4YTsJPGc+JiN4YTsJCTxwYXRoIGQ9Ik03MS43LDE5LjdWNDhoMjgiIGNsYXNzPSJzdDEiLz4mI3hhOwkJPHBhdGggZD0iTTkxLjIsMzguNWw3LjUsNy42YzEuMywxLjMsMS4zLDMuMSwwLDQuM0w5MS4xLDU4IiBjbGFzcz0ic3QxIi8+JiN4YTsJPC9nPiYjeGE7CTxnPiYjeGE7CQk8cGF0aCBkPSJNMjAsNDcuOGgyOC40di0yOCIgY2xhc3M9InN0MSIvPiYjeGE7CQk8cGF0aCBkPSJNMzguOCwyOC4zbDcuNi03LjVjMS4zLTEuMywzLjEtMS4zLDQuMywwbDcuNyw3LjYiIGNsYXNzPSJzdDEiLz4mI3hhOwk8L2c+JiN4YTsJPGc+JiN4YTsJCTxwYXRoIGQ9Ik00OCwxMDAuM1Y3MkgyMCIgY2xhc3M9InN0MSIvPiYjeGE7CQk8cGF0aCBkPSJNMjguNSw4MS41TDIxLDczLjljLTEuMy0xLjMtMS4zLTMuMSwwLTQuM2w3LjYtNy43IiBjbGFzcz0ic3QxIi8+JiN4YTsJPC9nPiYjeGE7CTxnPiYjeGE7CQk8cGF0aCBkPSJNMTAwLDcxLjlINzEuNnYyOCIgY2xhc3M9InN0MSIvPiYjeGE7CQk8cGF0aCBkPSJNODEuMiw5MS40bC03LjYsNy41Yy0xLjMsMS4zLTMuMSwxLjMtNC4zLDBsLTcuNy03LjYiIGNsYXNzPSJzdDEiLz4mI3hhOwk8L2c+JiN4YTs8L2c+JiN4YTs8L3N2Zz4=;fontSize=14;fontFamily=Google Sans;fontSource=https%3A%2F%2Ffonts.googleapis.com%2Fcss%3Ffamily%3DGoogle%2BSans;" parent="group-leaf1" vertex="1">
            <mxGeometry y="7.5" width="75" height="75" as="geometry" />
          </mxCell>
        </object>
        <object label="49" id="leaf1:ethernet-1/49:spine1:ethernet-1/1">
          <mxCell style="ellipse;whiteSpace=wrap;html=1;aspect=fixed;fontColor=#FFFFFF;fontSize=10;strokeColor=#98A2AE;fillColor=#BEC8D2;fontFamily=Google Sans;fontSource=https%3A%2F%2Ffonts.googleapis.com%2Fcss%3Ffamily%3DGoogle%2BSans;" parent="group-leaf1" vertex="1">
            <mxGeometry x="17.5" width="15" height="15" as="geometry" />
          </mxCell>
        </object>
        <object label="50" id="leaf1:ethernet-1/50:spine2:ethernet-1/1">
          <mxCell style="ellipse;whiteSpace=wrap;html=1;aspect=fixed;fontColor=#FFFFFF;fontSize=10;strokeColor=#98A2AE;fillColor=#BEC8D2;fontFamily=Google Sans;fontSource=https%3A%2F%2Ffonts.googleapis.com%2Fcss%3Ffamily%3DGoogle%2BSans;" parent="group-leaf1" vertex="1">
            <mxGeometry x="42.5" width="15" height="15" as="geometry" />
          </mxCell>
        </object>
        <object label="1" id="leaf1:ethernet-1/1:client1:eth1">
          <mxCell style="ellipse;whiteSpace=wrap;html=1;aspect=fixed;fontColor=#FFFFFF;fontSize=10;strokeColor=#98A2AE;fillColor=#BEC8D2;fontFamily=Google Sans;fontSource=https%3A%2F%2Ffonts.googleapis.com%2Fcss%3Ffamily%3DGoogle%2BSans;" parent="group-leaf1" vertex="1">
            <mxGeometry x="17.5" y="75" width="15" height="15" as="geometry" />
          </mxCell>
        </object>
        <object label="2" id="leaf1:ethernet-1/2:client2:eth1">
          <mxCell style="ellipse;whiteSpace=wrap;html=1;aspect=fixed;fontColor=#FFFFFF;fontSize=10;strokeColor=#98A2AE;fillColor=#BEC8D2;fontFamily=Google Sans;fontSource=https%3A%2F%2Ffonts.googleapis.com%2Fcss%3Ffamily%3DGoogle%2BSans;" parent="group-leaf1" vertex="1">
            <mxGeometry x="42.5" y="75" width="15" height="15" as="geometry" />
          </mxCell>
        </object>
        <mxCell id="group-leaf2" value="" style="group;fontFamily=Google Sans;fontSource=https%3A%2F%2Ffonts.googleapis.com%2Fcss%3Ffamily%3DGoogle%2BSans;" parent="1" vertex="1" connectable="0">
          <mxGeometry x="275" y="292.5" width="75" height="90" as="geometry" />
        </mxCell>
        <object label="leaf2" id="leaf2">
          <mxCell style="shape=image;imageAlign=center;imageVerticalAlign=middle;labelPosition=left;align=right;verticalLabelPosition=top;spacingLeft=0;verticalAlign=bottom;spacingTop=0;spacing=0;fontColor=default;editableCssRules=\.st[0-2]$;labelBackgroundColor=none;aspect=fixed;imageAspect=0;image=data:image/svg+xml,PHN2ZyB4bWxuczp4bGluaz0iaHR0cDovL3d3dy53My5vcmcvMTk5OS94bGluayIgeG1sbnM9Imh0dHA6Ly93d3cudzMub3JnLzIwMDAvc3ZnIiB4bWw6c3BhY2U9InByZXNlcnZlIiBzdHlsZT0iZW5hYmxlLWJhY2tncm91bmQ6bmV3IDAgMCAxMjAgMTIwO2VkaXRhYmxlQ3NzUnVsZXM9Lio7IiB2aWV3Qm94PSIwIDAgMTIwIDEyMCIgeT0iMHB4IiB4PSIwcHgiIGlkPSJMYXllcl8xIiB2ZXJzaW9uPSIxLjEiPiYjeGE7PHN0eWxlIHR5cGU9InRleHQvY3NzIj4uc3QwIHsgZmlsbDogcmdiKDIzMCwgMTI2LCAzNCk7IH0gLnN0MSB7IGZpbGw6IG5vbmU7IHN0cm9rZTogcmdiKDI1NSwgMjU1LCAyNTUpOyBzdHJva2Utd2lkdGg6IDQ7IHN0cm9rZS1saW5lY2FwOiByb3VuZDsgc3Ryb2tlLWxpbmVqb2luOiByb3VuZDsgc3Ryb2tlLW1pdGVybGltaXQ6IDEwOyB9IC5zdDIgeyBmaWxsOiByZ2IoMjU1LCAyNTUsIDI1NSk7IH0gLnN0MyB7IGZpbGw6IG5vbmU7IHN0cm9rZTogcmdiKDI1NSwgMjU1LCAyNTUpOyBzdHJva2Utd2lkdGg6IDQ7IHN0cm9rZS1taXRlcmxpbWl0OiAxMDsgfSAuc3Q0IHsgZmlsbDogbm9uZTsgc3Ryb2tlOiByZ2IoMjU1LCAyNTUsIDI1NSk7IHN0cm9rZS13aWR0aDogNDsgc3Ryb2tlLWxpbmVjYXA6IHJvdW5kOyBzdHJva2UtbGluZWpvaW46IHJvdW5kOyB9IC5zdDUgeyBmaWxsOiByZ2IoMjU1LCAyNTUsIDI1NSk7IHN0cm9rZTogcmdiKDI1NSwgMjU1LCAyNTUpOyBzdHJva2Utd2lkdGg6IDQ7IHN0cm9rZS1saW5lY2FwOiByb3VuZDsgc3Ryb2tlLWxpbmVqb2luOiByb3VuZDsgc3Ryb2tlLW1pdGVybGltaXQ6IDEwOyB9IC5zdDYgeyBmaWxsOiBub25lOyBzdHJva2U6IHJnYigyNTUsIDI1NSwgMjU1KTsgc3Ryb2tlLXdpZHRoOiA0LjIzMzM7IHN0cm9rZS1saW5lY2FwOiByb3VuZDsgc3Ryb2tlLWxpbmVqb2luOiByb3VuZDsgc3Ryb2tlLW1pdGVybGltaXQ6IDEwOyB9IC5zdDcgeyBmaWxsOiBub25lOyBzdHJva2U6IHJnYigyNTUsIDI1NSwgMjU1KTsgc3Ryb2tlLXdpZHRoOiA0OyBzdHJva2UtbGluZWNhcDogcm91bmQ7IHN0cm9rZS1taXRlcmxpbWl0OiAxMDsgfSAuc3Q4IHsgZmlsbDogcmdiKDI1NSwgMjU1LCAyNTUpOyBzdHJva2U6IHJnYigyNTUsIDI1NSwgMjU1KTsgc3Ryb2tlLXdpZHRoOiA0OyBzdHJva2UtbWl0ZXJsaW1pdDogMTA7IH0gLnN0OSB7IGZpbGw6IHJnYigyNTUsIDI1NSwgMjU1KTsgc3Ryb2tlOiByZ2IoMjU1LCAyNTUsIDI1NSk7IHN0cm9rZS13aWR0aDogNDsgfSAuc3QxMCB7IGZpbGw6IG5vbmU7IHN0cm9rZTogcmdiKDI1NSwgMjU1LCAyNTUpOyBzdHJva2Utd2lkdGg6IDQ7IH0gLnN0MTEgeyBmaWxsOiByZ2IoMzgsIDM4LCAzOCk7IHN0cm9rZTogcmdiKDI1NSwgMjU1LCAyNTUpOyBzdHJva2Utd2lkdGg6IDQuMjMzMzsgfSAuc3QxMiB7IGZpbGwtcnVsZTogZXZlbm9kZDsgY2xpcC1ydWxlOiBldmVub2RkOyBmaWxsOiBub25lOyBzdHJva2U6IHJnYigyNTUsIDI1NSwgMjU1KTsgc3Ryb2tlLXdpZHRoOiA0OyBzdHJva2UtbWl0ZXJsaW1pdDogMTA7IH0gLnN0MTMgeyBmaWxsLXJ1bGU6IGV2ZW5vZGQ7IGNsaXAtcnVsZTogZXZlbm9kZDsgZmlsbDogcmdiKDI1NSwgMjU1LCAyNTUpOyBzdHJva2U6IHJnYigyNTUsIDI1NSwgMjU1KTsgc3Ryb2tlLXdpZHRoOiA0OyB9IC5zdDE0IHsgZmlsbDogbm9uZTsgc3Ryb2tlOiByZ2IoMjU1LCAyNTUsIDI1NSk7IHN0cm9rZS13aWR0aDogNC4yMzMzOyBzdHJva2UtbGluZWNhcDogcm91bmQ7IHN0cm9rZS1saW5lam9pbjogcm91bmQ7IH0gLnN0MTUgeyBmaWxsOiBub25lOyBzdHJva2U6IHJnYigyNTUsIDI1NSwgMjU1KTsgc3Ryb2tlLXdpZHRoOiA0OyBzdHJva2UtbGluZWNhcDogcm91bmQ7IH0gLnN0MTYgeyBmaWxsOiByZ2IoMjU1LCAyNTUsIDI1NSk7IHN0cm9rZTogcmdiKDI1NSwgMjU1LCAyNTUpOyBzdHJva2UtbWl0ZXJsaW1pdDogMTA7IH0gLnN0MTcgeyBmaWxsOiByZ2IoMzgsIDM4LCAzOCk7IHN0cm9rZTogcmdiKDI1NSwgMjU1LCAyNTUpOyBzdHJva2Utd2lkdGg6IDQ7IHN0cm9rZS1taXRlcmxpbWl0OiAxMDsgfSAuc3QxOCB7IGZpbGw6IHJnYigyNTUsIDI1NSwgMjU1KTsgc3Ryb2tlOiByZ2IoMjU1LCAyNTUsIDI1NSk7IHN0cm9rZS13aWR0aDogNDsgc3Ryb2tlLWxpbmVjYXA6IHJvdW5kOyBzdHJva2UtbGluZWpvaW46IHJvdW5kOyB9IDwvc3R5bGU+JiN4YTs8cmVjdCBoZWlnaHQ9IjEyMCIgd2lkdGg9IjEyMCIgY2xhc3M9InN0MCIvPiYjeGE7PGc+JiN4YTsJPGc+JiN4YTsJCTxwYXRoIGQ9Ik03MS43LDE5LjdWNDhoMjgiIGNsYXNzPSJzdDEiLz4mI3hhOwkJPHBhdGggZD0iTTkxLjIsMzguNWw3LjUsNy42YzEuMywxLjMsMS4zLDMuMSwwLDQuM0w5MS4xLDU4IiBjbGFzcz0ic3QxIi8+JiN4YTsJPC9nPiYjeGE7CTxnPiYjeGE7CQk8cGF0aCBkPSJNMjAsNDcuOGgyOC40di0yOCIgY2xhc3M9InN0MSIvPiYjeGE7CQk8cGF0aCBkPSJNMzguOCwyOC4zbDcuNi03LjVjMS4zLTEuMywzLjEtMS4zLDQuMywwbDcuNyw3LjYiIGNsYXNzPSJzdDEiLz4mI3hhOwk8L2c+JiN4YTsJPGc+JiN4YTsJCTxwYXRoIGQ9Ik00OCwxMDAuM1Y3MkgyMCIgY2xhc3M9InN0MSIvPiYjeGE7CQk8cGF0aCBkPSJNMjguNSw4MS41TDIxLDczLjljLTEuMy0xLjMtMS4zLTMuMSwwLTQuM2w3LjYtNy43IiBjbGFzcz0ic3QxIi8+JiN4YTsJPC9nPiYjeGE7CTxnPiYjeGE7CQk8cGF0aCBkPSJNMTAwLDcxLjlINzEuNnYyOCIgY2xhc3M9InN0MSIvPiYjeGE7CQk8cGF0aCBkPSJNODEuMiw5MS40bC03LjYsNy41Yy0xLjMsMS4zLTMuMSwxLjMtNC4zLDBsLTcuNy03LjYiIGNsYXNzPSJzdDEiLz4mI3hhOwk8L2c+JiN4YTs8L2c+JiN4YTs8L3N2Zz4=;fontSize=14;fontFamily=Google Sans;fontSource=https%3A%2F%2Ffonts.googleapis.com%2Fcss%3Ffamily%3DGoogle%2BSans;" parent="group-leaf2" vertex="1">
            <mxGeometry y="7.5" width="75" height="75" as="geometry" />
          </mxCell>
        </object>
        <object label="49" id="leaf2:ethernet-1/49:spine1:ethernet-1/2">
          <mxCell style="ellipse;whiteSpace=wrap;html=1;aspect=fixed;fontColor=#FFFFFF;fontSize=10;strokeColor=#98A2AE;fillColor=#BEC8D2;align=left;fontFamily=Google Sans;fontSource=https%3A%2F%2Ffonts.googleapis.com%2Fcss%3Ffamily%3DGoogle%2BSans;" parent="group-leaf2" vertex="1">
            <mxGeometry x="22.5" width="15" height="15" as="geometry" />
          </mxCell>
        </object>
        <object label="50" id="leaf2:ethernet-1/50:spine2:ethernet-1/2">
          <mxCell style="ellipse;whiteSpace=wrap;html=1;aspect=fixed;fontColor=#FFFFFF;fontSize=10;strokeColor=#98A2AE;fillColor=#BEC8D2;fontFamily=Google Sans;fontSource=https%3A%2F%2Ffonts.googleapis.com%2Fcss%3Ffamily%3DGoogle%2BSans;" parent="group-leaf2" vertex="1">
            <mxGeometry x="42.5" width="15" height="15" as="geometry" />
          </mxCell>
        </object>
        <object label="1" id="leaf2:ethernet-1/1:client1:eth2">
          <mxCell style="ellipse;whiteSpace=wrap;html=1;aspect=fixed;fontColor=#FFFFFF;fontSize=10;strokeColor=#98A2AE;fillColor=#BEC8D2;fontFamily=Google Sans;fontSource=https%3A%2F%2Ffonts.googleapis.com%2Fcss%3Ffamily%3DGoogle%2BSans;" parent="group-leaf2" vertex="1">
            <mxGeometry x="17.5" y="75" width="15" height="15" as="geometry" />
          </mxCell>
        </object>
        <object label="2" id="leaf2:ethernet-1/2:client2:eth2">
          <mxCell style="ellipse;whiteSpace=wrap;html=1;aspect=fixed;fontColor=#FFFFFF;fontSize=10;strokeColor=#98A2AE;fillColor=#BEC8D2;fontFamily=Google Sans;fontSource=https%3A%2F%2Ffonts.googleapis.com%2Fcss%3Ffamily%3DGoogle%2BSans;" parent="group-leaf2" vertex="1">
            <mxGeometry x="42.5" y="75" width="15" height="15" as="geometry" />
          </mxCell>
        </object>
        <mxCell id="group-leaf3" value="" style="group;fontFamily=Google Sans;fontSource=https%3A%2F%2Ffonts.googleapis.com%2Fcss%3Ffamily%3DGoogle%2BSans;" parent="1" vertex="1" connectable="0">
          <mxGeometry x="450" y="292.5" width="75" height="90" as="geometry" />
        </mxCell>
        <object label="leaf3" id="leaf3">
          <mxCell style="shape=image;imageAlign=center;imageVerticalAlign=middle;labelPosition=left;align=right;verticalLabelPosition=top;spacingLeft=0;verticalAlign=bottom;spacingTop=0;spacing=0;fontColor=default;editableCssRules=\.st[0-2]$;labelBackgroundColor=none;aspect=fixed;imageAspect=0;image=data:image/svg+xml,PHN2ZyB4bWxuczp4bGluaz0iaHR0cDovL3d3dy53My5vcmcvMTk5OS94bGluayIgeG1sbnM9Imh0dHA6Ly93d3cudzMub3JnLzIwMDAvc3ZnIiB4bWw6c3BhY2U9InByZXNlcnZlIiBzdHlsZT0iZW5hYmxlLWJhY2tncm91bmQ6bmV3IDAgMCAxMjAgMTIwO2VkaXRhYmxlQ3NzUnVsZXM9Lio7IiB2aWV3Qm94PSIwIDAgMTIwIDEyMCIgeT0iMHB4IiB4PSIwcHgiIGlkPSJMYXllcl8xIiB2ZXJzaW9uPSIxLjEiPiYjeGE7PHN0eWxlIHR5cGU9InRleHQvY3NzIj4uc3QwIHsgZmlsbDogcmdiKDIzMCwgMTI2LCAzNCk7IH0gLnN0MSB7IGZpbGw6IG5vbmU7IHN0cm9rZTogcmdiKDI1NSwgMjU1LCAyNTUpOyBzdHJva2Utd2lkdGg6IDQ7IHN0cm9rZS1saW5lY2FwOiByb3VuZDsgc3Ryb2tlLWxpbmVqb2luOiByb3VuZDsgc3Ryb2tlLW1pdGVybGltaXQ6IDEwOyB9IC5zdDIgeyBmaWxsOiByZ2IoMjU1LCAyNTUsIDI1NSk7IH0gLnN0MyB7IGZpbGw6IG5vbmU7IHN0cm9rZTogcmdiKDI1NSwgMjU1LCAyNTUpOyBzdHJva2Utd2lkdGg6IDQ7IHN0cm9rZS1taXRlcmxpbWl0OiAxMDsgfSAuc3Q0IHsgZmlsbDogbm9uZTsgc3Ryb2tlOiByZ2IoMjU1LCAyNTUsIDI1NSk7IHN0cm9rZS13aWR0aDogNDsgc3Ryb2tlLWxpbmVjYXA6IHJvdW5kOyBzdHJva2UtbGluZWpvaW46IHJvdW5kOyB9IC5zdDUgeyBmaWxsOiByZ2IoMjU1LCAyNTUsIDI1NSk7IHN0cm9rZTogcmdiKDI1NSwgMjU1LCAyNTUpOyBzdHJva2Utd2lkdGg6IDQ7IHN0cm9rZS1saW5lY2FwOiByb3VuZDsgc3Ryb2tlLWxpbmVqb2luOiByb3VuZDsgc3Ryb2tlLW1pdGVybGltaXQ6IDEwOyB9IC5zdDYgeyBmaWxsOiBub25lOyBzdHJva2U6IHJnYigyNTUsIDI1NSwgMjU1KTsgc3Ryb2tlLXdpZHRoOiA0LjIzMzM7IHN0cm9rZS1saW5lY2FwOiByb3VuZDsgc3Ryb2tlLWxpbmVqb2luOiByb3VuZDsgc3Ryb2tlLW1pdGVybGltaXQ6IDEwOyB9IC5zdDcgeyBmaWxsOiBub25lOyBzdHJva2U6IHJnYigyNTUsIDI1NSwgMjU1KTsgc3Ryb2tlLXdpZHRoOiA0OyBzdHJva2UtbGluZWNhcDogcm91bmQ7IHN0cm9rZS1taXRlcmxpbWl0OiAxMDsgfSAuc3Q4IHsgZmlsbDogcmdiKDI1NSwgMjU1LCAyNTUpOyBzdHJva2U6IHJnYigyNTUsIDI1NSwgMjU1KTsgc3Ryb2tlLXdpZHRoOiA0OyBzdHJva2UtbWl0ZXJsaW1pdDogMTA7IH0gLnN0OSB7IGZpbGw6IHJnYigyNTUsIDI1NSwgMjU1KTsgc3Ryb2tlOiByZ2IoMjU1LCAyNTUsIDI1NSk7IHN0cm9rZS13aWR0aDogNDsgfSAuc3QxMCB7IGZpbGw6IG5vbmU7IHN0cm9rZTogcmdiKDI1NSwgMjU1LCAyNTUpOyBzdHJva2Utd2lkdGg6IDQ7IH0gLnN0MTEgeyBmaWxsOiByZ2IoMzgsIDM4LCAzOCk7IHN0cm9rZTogcmdiKDI1NSwgMjU1LCAyNTUpOyBzdHJva2Utd2lkdGg6IDQuMjMzMzsgfSAuc3QxMiB7IGZpbGwtcnVsZTogZXZlbm9kZDsgY2xpcC1ydWxlOiBldmVub2RkOyBmaWxsOiBub25lOyBzdHJva2U6IHJnYigyNTUsIDI1NSwgMjU1KTsgc3Ryb2tlLXdpZHRoOiA0OyBzdHJva2UtbWl0ZXJsaW1pdDogMTA7IH0gLnN0MTMgeyBmaWxsLXJ1bGU6IGV2ZW5vZGQ7IGNsaXAtcnVsZTogZXZlbm9kZDsgZmlsbDogcmdiKDI1NSwgMjU1LCAyNTUpOyBzdHJva2U6IHJnYigyNTUsIDI1NSwgMjU1KTsgc3Ryb2tlLXdpZHRoOiA0OyB9IC5zdDE0IHsgZmlsbDogbm9uZTsgc3Ryb2tlOiByZ2IoMjU1LCAyNTUsIDI1NSk7IHN0cm9rZS13aWR0aDogNC4yMzMzOyBzdHJva2UtbGluZWNhcDogcm91bmQ7IHN0cm9rZS1saW5lam9pbjogcm91bmQ7IH0gLnN0MTUgeyBmaWxsOiBub25lOyBzdHJva2U6IHJnYigyNTUsIDI1NSwgMjU1KTsgc3Ryb2tlLXdpZHRoOiA0OyBzdHJva2UtbGluZWNhcDogcm91bmQ7IH0gLnN0MTYgeyBmaWxsOiByZ2IoMjU1LCAyNTUsIDI1NSk7IHN0cm9rZTogcmdiKDI1NSwgMjU1LCAyNTUpOyBzdHJva2UtbWl0ZXJsaW1pdDogMTA7IH0gLnN0MTcgeyBmaWxsOiByZ2IoMzgsIDM4LCAzOCk7IHN0cm9rZTogcmdiKDI1NSwgMjU1LCAyNTUpOyBzdHJva2Utd2lkdGg6IDQ7IHN0cm9rZS1taXRlcmxpbWl0OiAxMDsgfSAuc3QxOCB7IGZpbGw6IHJnYigyNTUsIDI1NSwgMjU1KTsgc3Ryb2tlOiByZ2IoMjU1LCAyNTUsIDI1NSk7IHN0cm9rZS13aWR0aDogNDsgc3Ryb2tlLWxpbmVjYXA6IHJvdW5kOyBzdHJva2UtbGluZWpvaW46IHJvdW5kOyB9IDwvc3R5bGU+JiN4YTs8cmVjdCBoZWlnaHQ9IjEyMCIgd2lkdGg9IjEyMCIgY2xhc3M9InN0MCIvPiYjeGE7PGc+JiN4YTsJPGc+JiN4YTsJCTxwYXRoIGQ9Ik03MS43LDE5LjdWNDhoMjgiIGNsYXNzPSJzdDEiLz4mI3hhOwkJPHBhdGggZD0iTTkxLjIsMzguNWw3LjUsNy42YzEuMywxLjMsMS4zLDMuMSwwLDQuM0w5MS4xLDU4IiBjbGFzcz0ic3QxIi8+JiN4YTsJPC9nPiYjeGE7CTxnPiYjeGE7CQk8cGF0aCBkPSJNMjAsNDcuOGgyOC40di0yOCIgY2xhc3M9InN0MSIvPiYjeGE7CQk8cGF0aCBkPSJNMzguOCwyOC4zbDcuNi03LjVjMS4zLTEuMywzLjEtMS4zLDQuMywwbDcuNyw3LjYiIGNsYXNzPSJzdDEiLz4mI3hhOwk8L2c+JiN4YTsJPGc+JiN4YTsJCTxwYXRoIGQ9Ik00OCwxMDAuM1Y3MkgyMCIgY2xhc3M9InN0MSIvPiYjeGE7CQk8cGF0aCBkPSJNMjguNSw4MS41TDIxLDczLjljLTEuMy0xLjMtMS4zLTMuMSwwLTQuM2w3LjYtNy43IiBjbGFzcz0ic3QxIi8+JiN4YTsJPC9nPiYjeGE7CTxnPiYjeGE7CQk8cGF0aCBkPSJNMTAwLDcxLjlINzEuNnYyOCIgY2xhc3M9InN0MSIvPiYjeGE7CQk8cGF0aCBkPSJNODEuMiw5MS40bC03LjYsNy41Yy0xLjMsMS4zLTMuMSwxLjMtNC4zLDBsLTcuNy03LjYiIGNsYXNzPSJzdDEiLz4mI3hhOwk8L2c+JiN4YTs8L2c+JiN4YTs8L3N2Zz4=;fontSize=14;fontFamily=Google Sans;fontSource=https%3A%2F%2Ffonts.googleapis.com%2Fcss%3Ffamily%3DGoogle%2BSans;" parent="group-leaf3" vertex="1">
            <mxGeometry y="7.5" width="75" height="75" as="geometry" />
          </mxCell>
        </object>
        <object label="49" id="leaf3:ethernet-1/49:spine1:ethernet-1/3">
          <mxCell style="ellipse;whiteSpace=wrap;html=1;aspect=fixed;fontColor=#FFFFFF;fontSize=9;strokeColor=#98A2AE;fillColor=#BEC8D2;fontFamily=Google Sans;fontSource=https%3A%2F%2Ffonts.googleapis.com%2Fcss%3Ffamily%3DGoogle%2BSans;" parent="group-leaf3" vertex="1">
            <mxGeometry x="17.5" width="15" height="15" as="geometry" />
          </mxCell>
        </object>
        <object label="50" id="leaf3:ethernet-1/50:spine2:ethernet-1/3">
          <mxCell style="ellipse;whiteSpace=wrap;html=1;aspect=fixed;fontColor=#FFFFFF;fontSize=10;strokeColor=#98A2AE;fillColor=#BEC8D2;fontFamily=Google Sans;fontSource=https%3A%2F%2Ffonts.googleapis.com%2Fcss%3Ffamily%3DGoogle%2BSans;" parent="group-leaf3" vertex="1">
            <mxGeometry x="37.5" width="15" height="15" as="geometry" />
          </mxCell>
        </object>
        <object label="1" id="leaf3:ethernet-1/1:client3:eth1">
          <mxCell style="ellipse;whiteSpace=wrap;html=1;aspect=fixed;fontColor=#FFFFFF;fontSize=10;strokeColor=#98A2AE;fillColor=#BEC8D2;fontFamily=Google Sans;fontSource=https%3A%2F%2Ffonts.googleapis.com%2Fcss%3Ffamily%3DGoogle%2BSans;" parent="group-leaf3" vertex="1">
            <mxGeometry x="17.5" y="75" width="15" height="15" as="geometry" />
          </mxCell>
        </object>
        <object label="2" id="leaf3:ethernet-1/2:client4:eth1">
          <mxCell style="ellipse;whiteSpace=wrap;html=1;aspect=fixed;fontColor=#FFFFFF;fontSize=10;strokeColor=#98A2AE;fillColor=#BEC8D2;fontFamily=Google Sans;fontSource=https%3A%2F%2Ffonts.googleapis.com%2Fcss%3Ffamily%3DGoogle%2BSans;" parent="group-leaf3" vertex="1">
            <mxGeometry x="42.5" y="75" width="15" height="15" as="geometry" />
          </mxCell>
        </object>
        <mxCell id="group-leaf4" value="" style="group;fontFamily=Google Sans;fontSource=https%3A%2F%2Ffonts.googleapis.com%2Fcss%3Ffamily%3DGoogle%2BSans;" parent="1" vertex="1" connectable="0">
          <mxGeometry x="625" y="292.5" width="75" height="90" as="geometry" />
        </mxCell>
        <object label="leaf4" id="leaf4">
          <mxCell style="shape=image;imageAlign=center;imageVerticalAlign=middle;labelPosition=left;align=right;verticalLabelPosition=top;spacingLeft=0;verticalAlign=bottom;spacingTop=0;spacing=0;fontColor=default;editableCssRules=\.st[0-2]$;labelBackgroundColor=none;aspect=fixed;imageAspect=0;image=data:image/svg+xml,PHN2ZyB4bWxuczp4bGluaz0iaHR0cDovL3d3dy53My5vcmcvMTk5OS94bGluayIgeG1sbnM9Imh0dHA6Ly93d3cudzMub3JnLzIwMDAvc3ZnIiB4bWw6c3BhY2U9InByZXNlcnZlIiBzdHlsZT0iZW5hYmxlLWJhY2tncm91bmQ6bmV3IDAgMCAxMjAgMTIwO2VkaXRhYmxlQ3NzUnVsZXM9Lio7IiB2aWV3Qm94PSIwIDAgMTIwIDEyMCIgeT0iMHB4IiB4PSIwcHgiIGlkPSJMYXllcl8xIiB2ZXJzaW9uPSIxLjEiPiYjeGE7PHN0eWxlIHR5cGU9InRleHQvY3NzIj4uc3QwIHsgZmlsbDogcmdiKDIzMCwgMTI2LCAzNCk7IH0gLnN0MSB7IGZpbGw6IG5vbmU7IHN0cm9rZTogcmdiKDI1NSwgMjU1LCAyNTUpOyBzdHJva2Utd2lkdGg6IDQ7IHN0cm9rZS1saW5lY2FwOiByb3VuZDsgc3Ryb2tlLWxpbmVqb2luOiByb3VuZDsgc3Ryb2tlLW1pdGVybGltaXQ6IDEwOyB9IC5zdDIgeyBmaWxsOiByZ2IoMjU1LCAyNTUsIDI1NSk7IH0gLnN0MyB7IGZpbGw6IG5vbmU7IHN0cm9rZTogcmdiKDI1NSwgMjU1LCAyNTUpOyBzdHJva2Utd2lkdGg6IDQ7IHN0cm9rZS1taXRlcmxpbWl0OiAxMDsgfSAuc3Q0IHsgZmlsbDogbm9uZTsgc3Ryb2tlOiByZ2IoMjU1LCAyNTUsIDI1NSk7IHN0cm9rZS13aWR0aDogNDsgc3Ryb2tlLWxpbmVjYXA6IHJvdW5kOyBzdHJva2UtbGluZWpvaW46IHJvdW5kOyB9IC5zdDUgeyBmaWxsOiByZ2IoMjU1LCAyNTUsIDI1NSk7IHN0cm9rZTogcmdiKDI1NSwgMjU1LCAyNTUpOyBzdHJva2Utd2lkdGg6IDQ7IHN0cm9rZS1saW5lY2FwOiByb3VuZDsgc3Ryb2tlLWxpbmVqb2luOiByb3VuZDsgc3Ryb2tlLW1pdGVybGltaXQ6IDEwOyB9IC5zdDYgeyBmaWxsOiBub25lOyBzdHJva2U6IHJnYigyNTUsIDI1NSwgMjU1KTsgc3Ryb2tlLXdpZHRoOiA0LjIzMzM7IHN0cm9rZS1saW5lY2FwOiByb3VuZDsgc3Ryb2tlLWxpbmVqb2luOiByb3VuZDsgc3Ryb2tlLW1pdGVybGltaXQ6IDEwOyB9IC5zdDcgeyBmaWxsOiBub25lOyBzdHJva2U6IHJnYigyNTUsIDI1NSwgMjU1KTsgc3Ryb2tlLXdpZHRoOiA0OyBzdHJva2UtbGluZWNhcDogcm91bmQ7IHN0cm9rZS1taXRlcmxpbWl0OiAxMDsgfSAuc3Q4IHsgZmlsbDogcmdiKDI1NSwgMjU1LCAyNTUpOyBzdHJva2U6IHJnYigyNTUsIDI1NSwgMjU1KTsgc3Ryb2tlLXdpZHRoOiA0OyBzdHJva2UtbWl0ZXJsaW1pdDogMTA7IH0gLnN0OSB7IGZpbGw6IHJnYigyNTUsIDI1NSwgMjU1KTsgc3Ryb2tlOiByZ2IoMjU1LCAyNTUsIDI1NSk7IHN0cm9rZS13aWR0aDogNDsgfSAuc3QxMCB7IGZpbGw6IG5vbmU7IHN0cm9rZTogcmdiKDI1NSwgMjU1LCAyNTUpOyBzdHJva2Utd2lkdGg6IDQ7IH0gLnN0MTEgeyBmaWxsOiByZ2IoMzgsIDM4LCAzOCk7IHN0cm9rZTogcmdiKDI1NSwgMjU1LCAyNTUpOyBzdHJva2Utd2lkdGg6IDQuMjMzMzsgfSAuc3QxMiB7IGZpbGwtcnVsZTogZXZlbm9kZDsgY2xpcC1ydWxlOiBldmVub2RkOyBmaWxsOiBub25lOyBzdHJva2U6IHJnYigyNTUsIDI1NSwgMjU1KTsgc3Ryb2tlLXdpZHRoOiA0OyBzdHJva2UtbWl0ZXJsaW1pdDogMTA7IH0gLnN0MTMgeyBmaWxsLXJ1bGU6IGV2ZW5vZGQ7IGNsaXAtcnVsZTogZXZlbm9kZDsgZmlsbDogcmdiKDI1NSwgMjU1LCAyNTUpOyBzdHJva2U6IHJnYigyNTUsIDI1NSwgMjU1KTsgc3Ryb2tlLXdpZHRoOiA0OyB9IC5zdDE0IHsgZmlsbDogbm9uZTsgc3Ryb2tlOiByZ2IoMjU1LCAyNTUsIDI1NSk7IHN0cm9rZS13aWR0aDogNC4yMzMzOyBzdHJva2UtbGluZWNhcDogcm91bmQ7IHN0cm9rZS1saW5lam9pbjogcm91bmQ7IH0gLnN0MTUgeyBmaWxsOiBub25lOyBzdHJva2U6IHJnYigyNTUsIDI1NSwgMjU1KTsgc3Ryb2tlLXdpZHRoOiA0OyBzdHJva2UtbGluZWNhcDogcm91bmQ7IH0gLnN0MTYgeyBmaWxsOiByZ2IoMjU1LCAyNTUsIDI1NSk7IHN0cm9rZTogcmdiKDI1NSwgMjU1LCAyNTUpOyBzdHJva2UtbWl0ZXJsaW1pdDogMTA7IH0gLnN0MTcgeyBmaWxsOiByZ2IoMzgsIDM4LCAzOCk7IHN0cm9rZTogcmdiKDI1NSwgMjU1LCAyNTUpOyBzdHJva2Utd2lkdGg6IDQ7IHN0cm9rZS1taXRlcmxpbWl0OiAxMDsgfSAuc3QxOCB7IGZpbGw6IHJnYigyNTUsIDI1NSwgMjU1KTsgc3Ryb2tlOiByZ2IoMjU1LCAyNTUsIDI1NSk7IHN0cm9rZS13aWR0aDogNDsgc3Ryb2tlLWxpbmVjYXA6IHJvdW5kOyBzdHJva2UtbGluZWpvaW46IHJvdW5kOyB9IDwvc3R5bGU+JiN4YTs8cmVjdCBoZWlnaHQ9IjEyMCIgd2lkdGg9IjEyMCIgY2xhc3M9InN0MCIvPiYjeGE7PGc+JiN4YTsJPGc+JiN4YTsJCTxwYXRoIGQ9Ik03MS43LDE5LjdWNDhoMjgiIGNsYXNzPSJzdDEiLz4mI3hhOwkJPHBhdGggZD0iTTkxLjIsMzguNWw3LjUsNy42YzEuMywxLjMsMS4zLDMuMSwwLDQuM0w5MS4xLDU4IiBjbGFzcz0ic3QxIi8+JiN4YTsJPC9nPiYjeGE7CTxnPiYjeGE7CQk8cGF0aCBkPSJNMjAsNDcuOGgyOC40di0yOCIgY2xhc3M9InN0MSIvPiYjeGE7CQk8cGF0aCBkPSJNMzguOCwyOC4zbDcuNi03LjVjMS4zLTEuMywzLjEtMS4zLDQuMywwbDcuNyw3LjYiIGNsYXNzPSJzdDEiLz4mI3hhOwk8L2c+JiN4YTsJPGc+JiN4YTsJCTxwYXRoIGQ9Ik00OCwxMDAuM1Y3MkgyMCIgY2xhc3M9InN0MSIvPiYjeGE7CQk8cGF0aCBkPSJNMjguNSw4MS41TDIxLDczLjljLTEuMy0xLjMtMS4zLTMuMSwwLTQuM2w3LjYtNy43IiBjbGFzcz0ic3QxIi8+JiN4YTsJPC9nPiYjeGE7CTxnPiYjeGE7CQk8cGF0aCBkPSJNMTAwLDcxLjlINzEuNnYyOCIgY2xhc3M9InN0MSIvPiYjeGE7CQk8cGF0aCBkPSJNODEuMiw5MS40bC03LjYsNy41Yy0xLjMsMS4zLTMuMSwxLjMtNC4zLDBsLTcuNy03LjYiIGNsYXNzPSJzdDEiLz4mI3hhOwk8L2c+JiN4YTs8L2c+JiN4YTs8L3N2Zz4=;fontSize=14;fontFamily=Google Sans;fontSource=https%3A%2F%2Ffonts.googleapis.com%2Fcss%3Ffamily%3DGoogle%2BSans;" parent="group-leaf4" vertex="1">
            <mxGeometry y="7.5" width="75" height="75" as="geometry" />
          </mxCell>
        </object>
        <object label="49" id="leaf4:ethernet-1/49:spine1:ethernet-1/4">
          <mxCell style="ellipse;whiteSpace=wrap;html=1;aspect=fixed;fontColor=#FFFFFF;fontSize=10;strokeColor=#98A2AE;fillColor=#BEC8D2;fontFamily=Google Sans;fontSource=https%3A%2F%2Ffonts.googleapis.com%2Fcss%3Ffamily%3DGoogle%2BSans;" parent="group-leaf4" vertex="1">
            <mxGeometry x="17.5" width="15" height="15" as="geometry" />
          </mxCell>
        </object>
        <object label="50" id="leaf4:ethernet-1/50:spine2:ethernet-1/4">
          <mxCell style="ellipse;whiteSpace=wrap;html=1;aspect=fixed;fontColor=#FFFFFF;fontSize=10;strokeColor=#98A2AE;fillColor=#BEC8D2;fontFamily=Google Sans;fontSource=https%3A%2F%2Ffonts.googleapis.com%2Fcss%3Ffamily%3DGoogle%2BSans;" parent="group-leaf4" vertex="1">
            <mxGeometry x="42.5" width="15" height="15" as="geometry" />
          </mxCell>
        </object>
        <object label="1" id="leaf4:ethernet-1/1:client3:eth2">
          <mxCell style="ellipse;whiteSpace=wrap;html=1;aspect=fixed;fontColor=#FFFFFF;fontSize=10;strokeColor=#98A2AE;fillColor=#BEC8D2;fontFamily=Google Sans;fontSource=https%3A%2F%2Ffonts.googleapis.com%2Fcss%3Ffamily%3DGoogle%2BSans;" parent="group-leaf4" vertex="1">
            <mxGeometry x="17.5" y="75" width="15" height="15" as="geometry" />
          </mxCell>
        </object>
        <object label="2" id="leaf4:ethernet-1/2:client4:eth2">
          <mxCell style="ellipse;whiteSpace=wrap;html=1;aspect=fixed;fontColor=#FFFFFF;fontSize=10;strokeColor=#98A2AE;fillColor=#BEC8D2;fontFamily=Google Sans;fontSource=https%3A%2F%2Ffonts.googleapis.com%2Fcss%3Ffamily%3DGoogle%2BSans;" parent="group-leaf4" vertex="1">
            <mxGeometry x="42.5" y="75" width="15" height="15" as="geometry" />
          </mxCell>
        </object>
        <mxCell id="group-spine2" value="" style="group;fontFamily=Google Sans;fontSource=https%3A%2F%2Ffonts.googleapis.com%2Fcss%3Ffamily%3DGoogle%2BSans;" parent="1" vertex="1" connectable="0">
          <mxGeometry x="450" y="75" width="75" height="82.5" as="geometry" />
        </mxCell>
        <object label="spine2" id="spine2">
          <mxCell style="shape=image;imageAlign=center;imageVerticalAlign=middle;labelPosition=left;align=right;verticalLabelPosition=top;spacingLeft=0;verticalAlign=bottom;spacingTop=0;spacing=0;fontColor=default;editableCssRules=\.st[0-2]$;labelBackgroundColor=none;aspect=fixed;imageAspect=0;image=data:image/svg+xml,PHN2ZyB4bWxuczp4bGluaz0iaHR0cDovL3d3dy53My5vcmcvMTk5OS94bGluayIgeG1sbnM9Imh0dHA6Ly93d3cudzMub3JnLzIwMDAvc3ZnIiB4bWw6c3BhY2U9InByZXNlcnZlIiBzdHlsZT0iZW5hYmxlLWJhY2tncm91bmQ6bmV3IDAgMCAxMjAgMTIwO2VkaXRhYmxlQ3NzUnVsZXM9Lio7IiB2aWV3Qm94PSIwIDAgMTIwIDEyMCIgeT0iMHB4IiB4PSIwcHgiIGlkPSJMYXllcl8xIiB2ZXJzaW9uPSIxLjEiPiYjeGE7PHN0eWxlIHR5cGU9InRleHQvY3NzIj4uc3QwIHsgZmlsbDogcmdiKDAsIDAsIDI1NSk7IH0gLnN0MSB7IGZpbGw6IG5vbmU7IHN0cm9rZTogcmdiKDI1NSwgMjU1LCAyNTUpOyBzdHJva2Utd2lkdGg6IDQ7IHN0cm9rZS1saW5lY2FwOiByb3VuZDsgc3Ryb2tlLWxpbmVqb2luOiByb3VuZDsgc3Ryb2tlLW1pdGVybGltaXQ6IDEwOyB9IC5zdDIgeyBmaWxsOiByZ2IoMjU1LCAyNTUsIDI1NSk7IH0gLnN0MyB7IGZpbGw6IG5vbmU7IHN0cm9rZTogcmdiKDI1NSwgMjU1LCAyNTUpOyBzdHJva2Utd2lkdGg6IDQ7IHN0cm9rZS1taXRlcmxpbWl0OiAxMDsgfSAuc3Q0IHsgZmlsbDogbm9uZTsgc3Ryb2tlOiByZ2IoMjU1LCAyNTUsIDI1NSk7IHN0cm9rZS13aWR0aDogNDsgc3Ryb2tlLWxpbmVjYXA6IHJvdW5kOyBzdHJva2UtbGluZWpvaW46IHJvdW5kOyB9IC5zdDUgeyBmaWxsOiByZ2IoMjU1LCAyNTUsIDI1NSk7IHN0cm9rZTogcmdiKDI1NSwgMjU1LCAyNTUpOyBzdHJva2Utd2lkdGg6IDQ7IHN0cm9rZS1saW5lY2FwOiByb3VuZDsgc3Ryb2tlLWxpbmVqb2luOiByb3VuZDsgc3Ryb2tlLW1pdGVybGltaXQ6IDEwOyB9IC5zdDYgeyBmaWxsOiBub25lOyBzdHJva2U6IHJnYigyNTUsIDI1NSwgMjU1KTsgc3Ryb2tlLXdpZHRoOiA0LjIzMzM7IHN0cm9rZS1saW5lY2FwOiByb3VuZDsgc3Ryb2tlLWxpbmVqb2luOiByb3VuZDsgc3Ryb2tlLW1pdGVybGltaXQ6IDEwOyB9IC5zdDcgeyBmaWxsOiBub25lOyBzdHJva2U6IHJnYigyNTUsIDI1NSwgMjU1KTsgc3Ryb2tlLXdpZHRoOiA0OyBzdHJva2UtbGluZWNhcDogcm91bmQ7IHN0cm9rZS1taXRlcmxpbWl0OiAxMDsgfSAuc3Q4IHsgZmlsbDogcmdiKDI1NSwgMjU1LCAyNTUpOyBzdHJva2U6IHJnYigyNTUsIDI1NSwgMjU1KTsgc3Ryb2tlLXdpZHRoOiA0OyBzdHJva2UtbWl0ZXJsaW1pdDogMTA7IH0gLnN0OSB7IGZpbGw6IHJnYigyNTUsIDI1NSwgMjU1KTsgc3Ryb2tlOiByZ2IoMjU1LCAyNTUsIDI1NSk7IHN0cm9rZS13aWR0aDogNDsgfSAuc3QxMCB7IGZpbGw6IG5vbmU7IHN0cm9rZTogcmdiKDI1NSwgMjU1LCAyNTUpOyBzdHJva2Utd2lkdGg6IDQ7IH0gLnN0MTEgeyBmaWxsOiByZ2IoMzgsIDM4LCAzOCk7IHN0cm9rZTogcmdiKDI1NSwgMjU1LCAyNTUpOyBzdHJva2Utd2lkdGg6IDQuMjMzMzsgfSAuc3QxMiB7IGZpbGwtcnVsZTogZXZlbm9kZDsgY2xpcC1ydWxlOiBldmVub2RkOyBmaWxsOiBub25lOyBzdHJva2U6IHJnYigyNTUsIDI1NSwgMjU1KTsgc3Ryb2tlLXdpZHRoOiA0OyBzdHJva2UtbWl0ZXJsaW1pdDogMTA7IH0gLnN0MTMgeyBmaWxsLXJ1bGU6IGV2ZW5vZGQ7IGNsaXAtcnVsZTogZXZlbm9kZDsgZmlsbDogcmdiKDI1NSwgMjU1LCAyNTUpOyBzdHJva2U6IHJnYigyNTUsIDI1NSwgMjU1KTsgc3Ryb2tlLXdpZHRoOiA0OyB9IC5zdDE0IHsgZmlsbDogbm9uZTsgc3Ryb2tlOiByZ2IoMjU1LCAyNTUsIDI1NSk7IHN0cm9rZS13aWR0aDogNC4yMzMzOyBzdHJva2UtbGluZWNhcDogcm91bmQ7IHN0cm9rZS1saW5lam9pbjogcm91bmQ7IH0gLnN0MTUgeyBmaWxsOiBub25lOyBzdHJva2U6IHJnYigyNTUsIDI1NSwgMjU1KTsgc3Ryb2tlLXdpZHRoOiA0OyBzdHJva2UtbGluZWNhcDogcm91bmQ7IH0gLnN0MTYgeyBmaWxsOiByZ2IoMjU1LCAyNTUsIDI1NSk7IHN0cm9rZTogcmdiKDI1NSwgMjU1LCAyNTUpOyBzdHJva2UtbWl0ZXJsaW1pdDogMTA7IH0gLnN0MTcgeyBmaWxsOiByZ2IoMzgsIDM4LCAzOCk7IHN0cm9rZTogcmdiKDI1NSwgMjU1LCAyNTUpOyBzdHJva2Utd2lkdGg6IDQ7IHN0cm9rZS1taXRlcmxpbWl0OiAxMDsgfSAuc3QxOCB7IGZpbGw6IHJnYigyNTUsIDI1NSwgMjU1KTsgc3Ryb2tlOiByZ2IoMjU1LCAyNTUsIDI1NSk7IHN0cm9rZS13aWR0aDogNDsgc3Ryb2tlLWxpbmVjYXA6IHJvdW5kOyBzdHJva2UtbGluZWpvaW46IHJvdW5kOyB9IDwvc3R5bGU+JiN4YTs8cmVjdCBoZWlnaHQ9IjEyMCIgd2lkdGg9IjEyMCIgY2xhc3M9InN0MCIvPiYjeGE7PGc+JiN4YTsJPGc+JiN4YTsJCTxwYXRoIGQ9Ik03MS43LDE5LjdWNDhoMjgiIGNsYXNzPSJzdDEiLz4mI3hhOwkJPHBhdGggZD0iTTkxLjIsMzguNWw3LjUsNy42YzEuMywxLjMsMS4zLDMuMSwwLDQuM0w5MS4xLDU4IiBjbGFzcz0ic3QxIi8+JiN4YTsJPC9nPiYjeGE7CTxnPiYjeGE7CQk8cGF0aCBkPSJNMjAsNDcuOGgyOC40di0yOCIgY2xhc3M9InN0MSIvPiYjeGE7CQk8cGF0aCBkPSJNMzguOCwyOC4zbDcuNi03LjVjMS4zLTEuMywzLjEtMS4zLDQuMywwbDcuNyw3LjYiIGNsYXNzPSJzdDEiLz4mI3hhOwk8L2c+JiN4YTsJPGc+JiN4YTsJCTxwYXRoIGQ9Ik00OCwxMDAuM1Y3MkgyMCIgY2xhc3M9InN0MSIvPiYjeGE7CQk8cGF0aCBkPSJNMjguNSw4MS41TDIxLDczLjljLTEuMy0xLjMtMS4zLTMuMSwwLTQuM2w3LjYtNy43IiBjbGFzcz0ic3QxIi8+JiN4YTsJPC9nPiYjeGE7CTxnPiYjeGE7CQk8cGF0aCBkPSJNMTAwLDcxLjlINzEuNnYyOCIgY2xhc3M9InN0MSIvPiYjeGE7CQk8cGF0aCBkPSJNODEuMiw5MS40bC03LjYsNy41Yy0xLjMsMS4zLTMuMSwxLjMtNC4zLDBsLTcuNy03LjYiIGNsYXNzPSJzdDEiLz4mI3hhOwk8L2c+JiN4YTs8L2c+JiN4YTs8L3N2Zz4=;fontSize=14;fontFamily=Google Sans;fontSource=https%3A%2F%2Ffonts.googleapis.com%2Fcss%3Ffamily%3DGoogle%2BSans;" parent="group-spine2" vertex="1">
            <mxGeometry width="75" height="75" as="geometry" />
          </mxCell>
        </object>
        <object label="1" id="spine2:ethernet-1/1:leaf1:ethernet-1/50">
          <mxCell style="ellipse;whiteSpace=wrap;html=1;aspect=fixed;fontColor=#FFFFFF;fontSize=10;strokeColor=#98A2AE;fillColor=#BEC8D2;fontFamily=Google Sans;fontSource=https%3A%2F%2Ffonts.googleapis.com%2Fcss%3Ffamily%3DGoogle%2BSans;" parent="group-spine2" vertex="1">
            <mxGeometry x="7.5" y="67.5" width="15" height="15" as="geometry" />
          </mxCell>
        </object>
        <object label="2" id="spine2:ethernet-1/2:leaf2:ethernet-1/50">
          <mxCell style="ellipse;whiteSpace=wrap;html=1;aspect=fixed;fontColor=#FFFFFF;fontSize=10;strokeColor=#98A2AE;fillColor=#BEC8D2;fontFamily=Google Sans;fontSource=https%3A%2F%2Ffonts.googleapis.com%2Fcss%3Ffamily%3DGoogle%2BSans;" parent="group-spine2" vertex="1">
            <mxGeometry x="22.5" y="67.5" width="15" height="15" as="geometry" />
          </mxCell>
        </object>
        <object label="3" id="spine2:ethernet-1/3:leaf3:ethernet-1/50">
          <mxCell style="ellipse;whiteSpace=wrap;html=1;aspect=fixed;fontColor=#FFFFFF;fontSize=10;strokeColor=#98A2AE;fillColor=#BEC8D2;fontFamily=Google Sans;fontSource=https%3A%2F%2Ffonts.googleapis.com%2Fcss%3Ffamily%3DGoogle%2BSans;" parent="group-spine2" vertex="1">
            <mxGeometry x="37.5" y="67.5" width="15" height="15" as="geometry" />
          </mxCell>
        </object>
        <object label="4" id="spine2:ethernet-1/4:leaf4:ethernet-1/50">
          <mxCell style="ellipse;whiteSpace=wrap;html=1;aspect=fixed;fontColor=#FFFFFF;fontSize=10;strokeColor=#98A2AE;fillColor=#BEC8D2;fontFamily=Google Sans;fontSource=https%3A%2F%2Ffonts.googleapis.com%2Fcss%3Ffamily%3DGoogle%2BSans;" parent="group-spine2" vertex="1">
            <mxGeometry x="52.5" y="67.5" width="15" height="15" as="geometry" />
          </mxCell>
        </object>
        <mxCell id="group-client1" value="" style="group;fontFamily=Google Sans;fontSource=https%3A%2F%2Ffonts.googleapis.com%2Fcss%3Ffamily%3DGoogle%2BSans;" parent="1" vertex="1" connectable="0">
          <mxGeometry x="100" y="492.5" width="75" height="82.5" as="geometry" />
        </mxCell>
        <object label="client1" id="client1">
          <mxCell style="shape=image;imageAlign=center;imageVerticalAlign=middle;labelPosition=left;align=right;verticalLabelPosition=top;spacingLeft=0;verticalAlign=bottom;spacingTop=0;spacing=0;fontColor=default;editableCssRules=\.st[0-2]$;labelBackgroundColor=none;aspect=fixed;imageAspect=0;image=data:image/svg+xml,PHN2ZyB4bWxuczp4bGluaz0iaHR0cDovL3d3dy53My5vcmcvMTk5OS94bGluayIgeG1sbnM9Imh0dHA6Ly93d3cudzMub3JnLzIwMDAvc3ZnIiB4bWw6c3BhY2U9InByZXNlcnZlIiBzdHlsZT0iZW5hYmxlLWJhY2tncm91bmQ6bmV3IDAgMCAxMjAgMTIwOyIgdmlld0JveD0iMCAwIDEyMCAxMjAiIHk9IjBweCIgeD0iMHB4IiBpZD0iTGF5ZXJfMSIgdmVyc2lvbj0iMS4xIj4mI3hhOzxzdHlsZSB0eXBlPSJ0ZXh0L2NzcyI+LnN0MCB7IGZpbGw6IHJnYigxNDksIDE2NSwgMTY2KTsgfSAuc3QxIHsgZmlsbDogbm9uZTsgc3Ryb2tlOiByZ2IoMjU1LCAyNTUsIDI1NSk7IHN0cm9rZS13aWR0aDogNDsgc3Ryb2tlLWxpbmVjYXA6IHJvdW5kOyBzdHJva2UtbGluZWpvaW46IHJvdW5kOyBzdHJva2UtbWl0ZXJsaW1pdDogMTA7IH0gLnN0MiB7IGZpbGw6IHJnYigyNTUsIDI1NSwgMjU1KTsgfSAuc3QzIHsgZmlsbDogbm9uZTsgc3Ryb2tlOiByZ2IoMjU1LCAyNTUsIDI1NSk7IHN0cm9rZS13aWR0aDogNDsgc3Ryb2tlLW1pdGVybGltaXQ6IDEwOyB9IC5zdDQgeyBmaWxsOiBub25lOyBzdHJva2U6IHJnYigyNTUsIDI1NSwgMjU1KTsgc3Ryb2tlLXdpZHRoOiA0OyBzdHJva2UtbGluZWNhcDogcm91bmQ7IHN0cm9rZS1saW5lam9pbjogcm91bmQ7IH0gLnN0NSB7IGZpbGw6IHJnYigyNTUsIDI1NSwgMjU1KTsgc3Ryb2tlOiByZ2IoMjU1LCAyNTUsIDI1NSk7IHN0cm9rZS13aWR0aDogNDsgc3Ryb2tlLWxpbmVjYXA6IHJvdW5kOyBzdHJva2UtbGluZWpvaW46IHJvdW5kOyBzdHJva2UtbWl0ZXJsaW1pdDogMTA7IH0gLnN0NiB7IGZpbGw6IG5vbmU7IHN0cm9rZTogcmdiKDI1NSwgMjU1LCAyNTUpOyBzdHJva2Utd2lkdGg6IDQuMjMzMzsgc3Ryb2tlLWxpbmVjYXA6IHJvdW5kOyBzdHJva2UtbGluZWpvaW46IHJvdW5kOyBzdHJva2UtbWl0ZXJsaW1pdDogMTA7IH0gLnN0NyB7IGZpbGw6IG5vbmU7IHN0cm9rZTogcmdiKDI1NSwgMjU1LCAyNTUpOyBzdHJva2Utd2lkdGg6IDQ7IHN0cm9rZS1saW5lY2FwOiByb3VuZDsgc3Ryb2tlLW1pdGVybGltaXQ6IDEwOyB9IC5zdDggeyBmaWxsOiByZ2IoMjU1LCAyNTUsIDI1NSk7IHN0cm9rZTogcmdiKDI1NSwgMjU1LCAyNTUpOyBzdHJva2Utd2lkdGg6IDQ7IHN0cm9rZS1taXRlcmxpbWl0OiAxMDsgfSAuc3Q5IHsgZmlsbDogcmdiKDI1NSwgMjU1LCAyNTUpOyBzdHJva2U6IHJnYigyNTUsIDI1NSwgMjU1KTsgc3Ryb2tlLXdpZHRoOiA0OyB9IC5zdDEwIHsgZmlsbDogbm9uZTsgc3Ryb2tlOiByZ2IoMjU1LCAyNTUsIDI1NSk7IHN0cm9rZS13aWR0aDogNDsgfSAuc3QxMSB7IGZpbGw6IHJnYigzOCwgMzgsIDM4KTsgc3Ryb2tlOiByZ2IoMjU1LCAyNTUsIDI1NSk7IHN0cm9rZS13aWR0aDogNC4yMzMzOyB9IC5zdDEyIHsgZmlsbC1ydWxlOiBldmVub2RkOyBjbGlwLXJ1bGU6IGV2ZW5vZGQ7IGZpbGw6IG5vbmU7IHN0cm9rZTogcmdiKDI1NSwgMjU1LCAyNTUpOyBzdHJva2Utd2lkdGg6IDQ7IHN0cm9rZS1taXRlcmxpbWl0OiAxMDsgfSAuc3QxMyB7IGZpbGwtcnVsZTogZXZlbm9kZDsgY2xpcC1ydWxlOiBldmVub2RkOyBmaWxsOiByZ2IoMjU1LCAyNTUsIDI1NSk7IHN0cm9rZTogcmdiKDI1NSwgMjU1LCAyNTUpOyBzdHJva2Utd2lkdGg6IDQ7IH0gLnN0MTQgeyBmaWxsOiBub25lOyBzdHJva2U6IHJnYigyNTUsIDI1NSwgMjU1KTsgc3Ryb2tlLXdpZHRoOiA0LjIzMzM7IHN0cm9rZS1saW5lY2FwOiByb3VuZDsgc3Ryb2tlLWxpbmVqb2luOiByb3VuZDsgfSAuc3QxNSB7IGZpbGw6IG5vbmU7IHN0cm9rZTogcmdiKDI1NSwgMjU1LCAyNTUpOyBzdHJva2Utd2lkdGg6IDQ7IHN0cm9rZS1saW5lY2FwOiByb3VuZDsgfSAuc3QxNiB7IGZpbGw6IHJnYigyNTUsIDI1NSwgMjU1KTsgc3Ryb2tlOiByZ2IoMjU1LCAyNTUsIDI1NSk7IHN0cm9rZS1taXRlcmxpbWl0OiAxMDsgfSAuc3QxNyB7IGZpbGw6IHJnYigzOCwgMzgsIDM4KTsgc3Ryb2tlOiByZ2IoMjU1LCAyNTUsIDI1NSk7IHN0cm9rZS13aWR0aDogNDsgc3Ryb2tlLW1pdGVybGltaXQ6IDEwOyB9IC5zdDE4IHsgZmlsbDogcmdiKDI1NSwgMjU1LCAyNTUpOyBzdHJva2U6IHJnYigyNTUsIDI1NSwgMjU1KTsgc3Ryb2tlLXdpZHRoOiA0OyBzdHJva2UtbGluZWNhcDogcm91bmQ7IHN0cm9rZS1saW5lam9pbjogcm91bmQ7IH0gPC9zdHlsZT4mI3hhOzxyZWN0IGhlaWdodD0iMTIwIiB3aWR0aD0iMTIwIiBjbGFzcz0ic3QwIi8+JiN4YTs8Zz4mI3hhOwk8cGF0aCBkPSJNMTAwLDkxLjFIMjBIMTAweiBNODkuMSwzMi41YzAtMC41LDAtMS0wLjItMS40Yy0wLjItMC41LTAuNC0wLjktMC44LTEuMmMtMC4zLTAuMy0wLjgtMC42LTEuMi0wLjgmIzEwOyYjOTsmIzk7Yy0wLjUtMC4yLTAuOS0wLjItMS40LTAuMkgzNC42Yy0wLjUsMC0xLDAtMS40LDAuMmMtMC41LDAuMi0wLjksMC40LTEuMiwwLjhjLTAuMywwLjMtMC42LDAuOC0wLjgsMS4yYy0wLjIsMC41LTAuMiwwLjktMC4yLDEuNCYjMTA7JiM5OyYjOTtWNzZoNTguMlYzMi41eiIgY2xhc3M9InN0NCIvPiYjeGE7PC9nPiYjeGE7PC9zdmc+;fontSize=14;fontFamily=Google Sans;fontSource=https%3A%2F%2Ffonts.googleapis.com%2Fcss%3Ffamily%3DGoogle%2BSans;" parent="group-client1" vertex="1">
            <mxGeometry y="7.5" width="75" height="75" as="geometry" />
          </mxCell>
        </object>
        <object label="1" id="client1:eth1:leaf1:ethernet-1/1">
          <mxCell style="ellipse;whiteSpace=wrap;html=1;aspect=fixed;fontColor=#FFFFFF;fontSize=10;strokeColor=#98A2AE;fillColor=#BEC8D2;fontFamily=Google Sans;fontSource=https%3A%2F%2Ffonts.googleapis.com%2Fcss%3Ffamily%3DGoogle%2BSans;" parent="group-client1" vertex="1">
            <mxGeometry x="17.5" width="15" height="15" as="geometry" />
          </mxCell>
        </object>
        <object label="2" id="client1:eth2:leaf2:ethernet-1/1">
          <mxCell style="ellipse;whiteSpace=wrap;html=1;aspect=fixed;fontColor=#FFFFFF;fontSize=10;strokeColor=#98A2AE;fillColor=#BEC8D2;fontFamily=Google Sans;fontSource=https%3A%2F%2Ffonts.googleapis.com%2Fcss%3Ffamily%3DGoogle%2BSans;" parent="group-client1" vertex="1">
            <mxGeometry x="42.5" width="15" height="15" as="geometry" />
          </mxCell>
        </object>
        <mxCell id="group-client2" value="" style="group;fontFamily=Google Sans;fontSource=https%3A%2F%2Ffonts.googleapis.com%2Fcss%3Ffamily%3DGoogle%2BSans;" parent="1" vertex="1" connectable="0">
          <mxGeometry x="275" y="492.5" width="75" height="82.5" as="geometry" />
        </mxCell>
        <object label="client2" id="client2">
          <mxCell style="shape=image;imageAlign=center;imageVerticalAlign=middle;labelPosition=left;align=right;verticalLabelPosition=top;spacingLeft=0;verticalAlign=bottom;spacingTop=0;spacing=0;fontColor=default;editableCssRules=\.st[0-2]$;labelBackgroundColor=none;aspect=fixed;imageAspect=0;image=data:image/svg+xml,PHN2ZyB4bWxuczp4bGluaz0iaHR0cDovL3d3dy53My5vcmcvMTk5OS94bGluayIgeG1sbnM9Imh0dHA6Ly93d3cudzMub3JnLzIwMDAvc3ZnIiB4bWw6c3BhY2U9InByZXNlcnZlIiBzdHlsZT0iZW5hYmxlLWJhY2tncm91bmQ6bmV3IDAgMCAxMjAgMTIwOyIgdmlld0JveD0iMCAwIDEyMCAxMjAiIHk9IjBweCIgeD0iMHB4IiBpZD0iTGF5ZXJfMSIgdmVyc2lvbj0iMS4xIj4mI3hhOzxzdHlsZSB0eXBlPSJ0ZXh0L2NzcyI+LnN0MCB7IGZpbGw6IHJnYigxNDksIDE2NSwgMTY2KTsgfSAuc3QxIHsgZmlsbDogbm9uZTsgc3Ryb2tlOiByZ2IoMjU1LCAyNTUsIDI1NSk7IHN0cm9rZS13aWR0aDogNDsgc3Ryb2tlLWxpbmVjYXA6IHJvdW5kOyBzdHJva2UtbGluZWpvaW46IHJvdW5kOyBzdHJva2UtbWl0ZXJsaW1pdDogMTA7IH0gLnN0MiB7IGZpbGw6IHJnYigyNTUsIDI1NSwgMjU1KTsgfSAuc3QzIHsgZmlsbDogbm9uZTsgc3Ryb2tlOiByZ2IoMjU1LCAyNTUsIDI1NSk7IHN0cm9rZS13aWR0aDogNDsgc3Ryb2tlLW1pdGVybGltaXQ6IDEwOyB9IC5zdDQgeyBmaWxsOiBub25lOyBzdHJva2U6IHJnYigyNTUsIDI1NSwgMjU1KTsgc3Ryb2tlLXdpZHRoOiA0OyBzdHJva2UtbGluZWNhcDogcm91bmQ7IHN0cm9rZS1saW5lam9pbjogcm91bmQ7IH0gLnN0NSB7IGZpbGw6IHJnYigyNTUsIDI1NSwgMjU1KTsgc3Ryb2tlOiByZ2IoMjU1LCAyNTUsIDI1NSk7IHN0cm9rZS13aWR0aDogNDsgc3Ryb2tlLWxpbmVjYXA6IHJvdW5kOyBzdHJva2UtbGluZWpvaW46IHJvdW5kOyBzdHJva2UtbWl0ZXJsaW1pdDogMTA7IH0gLnN0NiB7IGZpbGw6IG5vbmU7IHN0cm9rZTogcmdiKDI1NSwgMjU1LCAyNTUpOyBzdHJva2Utd2lkdGg6IDQuMjMzMzsgc3Ryb2tlLWxpbmVjYXA6IHJvdW5kOyBzdHJva2UtbGluZWpvaW46IHJvdW5kOyBzdHJva2UtbWl0ZXJsaW1pdDogMTA7IH0gLnN0NyB7IGZpbGw6IG5vbmU7IHN0cm9rZTogcmdiKDI1NSwgMjU1LCAyNTUpOyBzdHJva2Utd2lkdGg6IDQ7IHN0cm9rZS1saW5lY2FwOiByb3VuZDsgc3Ryb2tlLW1pdGVybGltaXQ6IDEwOyB9IC5zdDggeyBmaWxsOiByZ2IoMjU1LCAyNTUsIDI1NSk7IHN0cm9rZTogcmdiKDI1NSwgMjU1LCAyNTUpOyBzdHJva2Utd2lkdGg6IDQ7IHN0cm9rZS1taXRlcmxpbWl0OiAxMDsgfSAuc3Q5IHsgZmlsbDogcmdiKDI1NSwgMjU1LCAyNTUpOyBzdHJva2U6IHJnYigyNTUsIDI1NSwgMjU1KTsgc3Ryb2tlLXdpZHRoOiA0OyB9IC5zdDEwIHsgZmlsbDogbm9uZTsgc3Ryb2tlOiByZ2IoMjU1LCAyNTUsIDI1NSk7IHN0cm9rZS13aWR0aDogNDsgfSAuc3QxMSB7IGZpbGw6IHJnYigzOCwgMzgsIDM4KTsgc3Ryb2tlOiByZ2IoMjU1LCAyNTUsIDI1NSk7IHN0cm9rZS13aWR0aDogNC4yMzMzOyB9IC5zdDEyIHsgZmlsbC1ydWxlOiBldmVub2RkOyBjbGlwLXJ1bGU6IGV2ZW5vZGQ7IGZpbGw6IG5vbmU7IHN0cm9rZTogcmdiKDI1NSwgMjU1LCAyNTUpOyBzdHJva2Utd2lkdGg6IDQ7IHN0cm9rZS1taXRlcmxpbWl0OiAxMDsgfSAuc3QxMyB7IGZpbGwtcnVsZTogZXZlbm9kZDsgY2xpcC1ydWxlOiBldmVub2RkOyBmaWxsOiByZ2IoMjU1LCAyNTUsIDI1NSk7IHN0cm9rZTogcmdiKDI1NSwgMjU1LCAyNTUpOyBzdHJva2Utd2lkdGg6IDQ7IH0gLnN0MTQgeyBmaWxsOiBub25lOyBzdHJva2U6IHJnYigyNTUsIDI1NSwgMjU1KTsgc3Ryb2tlLXdpZHRoOiA0LjIzMzM7IHN0cm9rZS1saW5lY2FwOiByb3VuZDsgc3Ryb2tlLWxpbmVqb2luOiByb3VuZDsgfSAuc3QxNSB7IGZpbGw6IG5vbmU7IHN0cm9rZTogcmdiKDI1NSwgMjU1LCAyNTUpOyBzdHJva2Utd2lkdGg6IDQ7IHN0cm9rZS1saW5lY2FwOiByb3VuZDsgfSAuc3QxNiB7IGZpbGw6IHJnYigyNTUsIDI1NSwgMjU1KTsgc3Ryb2tlOiByZ2IoMjU1LCAyNTUsIDI1NSk7IHN0cm9rZS1taXRlcmxpbWl0OiAxMDsgfSAuc3QxNyB7IGZpbGw6IHJnYigzOCwgMzgsIDM4KTsgc3Ryb2tlOiByZ2IoMjU1LCAyNTUsIDI1NSk7IHN0cm9rZS13aWR0aDogNDsgc3Ryb2tlLW1pdGVybGltaXQ6IDEwOyB9IC5zdDE4IHsgZmlsbDogcmdiKDI1NSwgMjU1LCAyNTUpOyBzdHJva2U6IHJnYigyNTUsIDI1NSwgMjU1KTsgc3Ryb2tlLXdpZHRoOiA0OyBzdHJva2UtbGluZWNhcDogcm91bmQ7IHN0cm9rZS1saW5lam9pbjogcm91bmQ7IH0gPC9zdHlsZT4mI3hhOzxyZWN0IGhlaWdodD0iMTIwIiB3aWR0aD0iMTIwIiBjbGFzcz0ic3QwIi8+JiN4YTs8Zz4mI3hhOwk8cGF0aCBkPSJNMTAwLDkxLjFIMjBIMTAweiBNODkuMSwzMi41YzAtMC41LDAtMS0wLjItMS40Yy0wLjItMC41LTAuNC0wLjktMC44LTEuMmMtMC4zLTAuMy0wLjgtMC42LTEuMi0wLjgmIzEwOyYjOTsmIzk7Yy0wLjUtMC4yLTAuOS0wLjItMS40LTAuMkgzNC42Yy0wLjUsMC0xLDAtMS40LDAuMmMtMC41LDAuMi0wLjksMC40LTEuMiwwLjhjLTAuMywwLjMtMC42LDAuOC0wLjgsMS4yYy0wLjIsMC41LTAuMiwwLjktMC4yLDEuNCYjMTA7JiM5OyYjOTtWNzZoNTguMlYzMi41eiIgY2xhc3M9InN0NCIvPiYjeGE7PC9nPiYjeGE7PC9zdmc+;fontSize=14;fontFamily=Google Sans;fontSource=https%3A%2F%2Ffonts.googleapis.com%2Fcss%3Ffamily%3DGoogle%2BSans;" parent="group-client2" vertex="1">
            <mxGeometry y="7.5" width="75" height="75" as="geometry" />
          </mxCell>
        </object>
        <object label="1" id="client2:eth1:leaf1:ethernet-1/2">
          <mxCell style="ellipse;whiteSpace=wrap;html=1;aspect=fixed;fontColor=#FFFFFF;fontSize=10;strokeColor=#98A2AE;fillColor=#BEC8D2;fontFamily=Google Sans;fontSource=https%3A%2F%2Ffonts.googleapis.com%2Fcss%3Ffamily%3DGoogle%2BSans;" parent="group-client2" vertex="1">
            <mxGeometry x="17.5" width="15" height="15" as="geometry" />
          </mxCell>
        </object>
        <object label="2" id="client2:eth2:leaf2:ethernet-1/2">
          <mxCell style="ellipse;whiteSpace=wrap;html=1;aspect=fixed;fontColor=#FFFFFF;fontSize=10;strokeColor=#98A2AE;fillColor=#BEC8D2;fontFamily=Google Sans;fontSource=https%3A%2F%2Ffonts.googleapis.com%2Fcss%3Ffamily%3DGoogle%2BSans;" parent="group-client2" vertex="1">
            <mxGeometry x="42.5" width="15" height="15" as="geometry" />
          </mxCell>
        </object>
        <mxCell id="group-client3" value="" style="group;fontFamily=Google Sans;fontSource=https%3A%2F%2Ffonts.googleapis.com%2Fcss%3Ffamily%3DGoogle%2BSans;" parent="1" vertex="1" connectable="0">
          <mxGeometry x="450" y="492.5" width="75" height="82.5" as="geometry" />
        </mxCell>
        <object label="client3" id="client3">
          <mxCell style="shape=image;imageAlign=center;imageVerticalAlign=middle;labelPosition=left;align=right;verticalLabelPosition=top;spacingLeft=0;verticalAlign=bottom;spacingTop=0;spacing=0;fontColor=default;editableCssRules=\.st[0-2]$;labelBackgroundColor=none;aspect=fixed;imageAspect=0;image=data:image/svg+xml,PHN2ZyB4bWxuczp4bGluaz0iaHR0cDovL3d3dy53My5vcmcvMTk5OS94bGluayIgeG1sbnM9Imh0dHA6Ly93d3cudzMub3JnLzIwMDAvc3ZnIiB4bWw6c3BhY2U9InByZXNlcnZlIiBzdHlsZT0iZW5hYmxlLWJhY2tncm91bmQ6bmV3IDAgMCAxMjAgMTIwOyIgdmlld0JveD0iMCAwIDEyMCAxMjAiIHk9IjBweCIgeD0iMHB4IiBpZD0iTGF5ZXJfMSIgdmVyc2lvbj0iMS4xIj4mI3hhOzxzdHlsZSB0eXBlPSJ0ZXh0L2NzcyI+LnN0MCB7IGZpbGw6IHJnYigxNDksIDE2NSwgMTY2KTsgfSAuc3QxIHsgZmlsbDogbm9uZTsgc3Ryb2tlOiByZ2IoMjU1LCAyNTUsIDI1NSk7IHN0cm9rZS13aWR0aDogNDsgc3Ryb2tlLWxpbmVjYXA6IHJvdW5kOyBzdHJva2UtbGluZWpvaW46IHJvdW5kOyBzdHJva2UtbWl0ZXJsaW1pdDogMTA7IH0gLnN0MiB7IGZpbGw6IHJnYigyNTUsIDI1NSwgMjU1KTsgfSAuc3QzIHsgZmlsbDogbm9uZTsgc3Ryb2tlOiByZ2IoMjU1LCAyNTUsIDI1NSk7IHN0cm9rZS13aWR0aDogNDsgc3Ryb2tlLW1pdGVybGltaXQ6IDEwOyB9IC5zdDQgeyBmaWxsOiBub25lOyBzdHJva2U6IHJnYigyNTUsIDI1NSwgMjU1KTsgc3Ryb2tlLXdpZHRoOiA0OyBzdHJva2UtbGluZWNhcDogcm91bmQ7IHN0cm9rZS1saW5lam9pbjogcm91bmQ7IH0gLnN0NSB7IGZpbGw6IHJnYigyNTUsIDI1NSwgMjU1KTsgc3Ryb2tlOiByZ2IoMjU1LCAyNTUsIDI1NSk7IHN0cm9rZS13aWR0aDogNDsgc3Ryb2tlLWxpbmVjYXA6IHJvdW5kOyBzdHJva2UtbGluZWpvaW46IHJvdW5kOyBzdHJva2UtbWl0ZXJsaW1pdDogMTA7IH0gLnN0NiB7IGZpbGw6IG5vbmU7IHN0cm9rZTogcmdiKDI1NSwgMjU1LCAyNTUpOyBzdHJva2Utd2lkdGg6IDQuMjMzMzsgc3Ryb2tlLWxpbmVjYXA6IHJvdW5kOyBzdHJva2UtbGluZWpvaW46IHJvdW5kOyBzdHJva2UtbWl0ZXJsaW1pdDogMTA7IH0gLnN0NyB7IGZpbGw6IG5vbmU7IHN0cm9rZTogcmdiKDI1NSwgMjU1LCAyNTUpOyBzdHJva2Utd2lkdGg6IDQ7IHN0cm9rZS1saW5lY2FwOiByb3VuZDsgc3Ryb2tlLW1pdGVybGltaXQ6IDEwOyB9IC5zdDggeyBmaWxsOiByZ2IoMjU1LCAyNTUsIDI1NSk7IHN0cm9rZTogcmdiKDI1NSwgMjU1LCAyNTUpOyBzdHJva2Utd2lkdGg6IDQ7IHN0cm9rZS1taXRlcmxpbWl0OiAxMDsgfSAuc3Q5IHsgZmlsbDogcmdiKDI1NSwgMjU1LCAyNTUpOyBzdHJva2U6IHJnYigyNTUsIDI1NSwgMjU1KTsgc3Ryb2tlLXdpZHRoOiA0OyB9IC5zdDEwIHsgZmlsbDogbm9uZTsgc3Ryb2tlOiByZ2IoMjU1LCAyNTUsIDI1NSk7IHN0cm9rZS13aWR0aDogNDsgfSAuc3QxMSB7IGZpbGw6IHJnYigzOCwgMzgsIDM4KTsgc3Ryb2tlOiByZ2IoMjU1LCAyNTUsIDI1NSk7IHN0cm9rZS13aWR0aDogNC4yMzMzOyB9IC5zdDEyIHsgZmlsbC1ydWxlOiBldmVub2RkOyBjbGlwLXJ1bGU6IGV2ZW5vZGQ7IGZpbGw6IG5vbmU7IHN0cm9rZTogcmdiKDI1NSwgMjU1LCAyNTUpOyBzdHJva2Utd2lkdGg6IDQ7IHN0cm9rZS1taXRlcmxpbWl0OiAxMDsgfSAuc3QxMyB7IGZpbGwtcnVsZTogZXZlbm9kZDsgY2xpcC1ydWxlOiBldmVub2RkOyBmaWxsOiByZ2IoMjU1LCAyNTUsIDI1NSk7IHN0cm9rZTogcmdiKDI1NSwgMjU1LCAyNTUpOyBzdHJva2Utd2lkdGg6IDQ7IH0gLnN0MTQgeyBmaWxsOiBub25lOyBzdHJva2U6IHJnYigyNTUsIDI1NSwgMjU1KTsgc3Ryb2tlLXdpZHRoOiA0LjIzMzM7IHN0cm9rZS1saW5lY2FwOiByb3VuZDsgc3Ryb2tlLWxpbmVqb2luOiByb3VuZDsgfSAuc3QxNSB7IGZpbGw6IG5vbmU7IHN0cm9rZTogcmdiKDI1NSwgMjU1LCAyNTUpOyBzdHJva2Utd2lkdGg6IDQ7IHN0cm9rZS1saW5lY2FwOiByb3VuZDsgfSAuc3QxNiB7IGZpbGw6IHJnYigyNTUsIDI1NSwgMjU1KTsgc3Ryb2tlOiByZ2IoMjU1LCAyNTUsIDI1NSk7IHN0cm9rZS1taXRlcmxpbWl0OiAxMDsgfSAuc3QxNyB7IGZpbGw6IHJnYigzOCwgMzgsIDM4KTsgc3Ryb2tlOiByZ2IoMjU1LCAyNTUsIDI1NSk7IHN0cm9rZS13aWR0aDogNDsgc3Ryb2tlLW1pdGVybGltaXQ6IDEwOyB9IC5zdDE4IHsgZmlsbDogcmdiKDI1NSwgMjU1LCAyNTUpOyBzdHJva2U6IHJnYigyNTUsIDI1NSwgMjU1KTsgc3Ryb2tlLXdpZHRoOiA0OyBzdHJva2UtbGluZWNhcDogcm91bmQ7IHN0cm9rZS1saW5lam9pbjogcm91bmQ7IH0gPC9zdHlsZT4mI3hhOzxyZWN0IGhlaWdodD0iMTIwIiB3aWR0aD0iMTIwIiBjbGFzcz0ic3QwIi8+JiN4YTs8Zz4mI3hhOwk8cGF0aCBkPSJNMTAwLDkxLjFIMjBIMTAweiBNODkuMSwzMi41YzAtMC41LDAtMS0wLjItMS40Yy0wLjItMC41LTAuNC0wLjktMC44LTEuMmMtMC4zLTAuMy0wLjgtMC42LTEuMi0wLjgmIzEwOyYjOTsmIzk7Yy0wLjUtMC4yLTAuOS0wLjItMS40LTAuMkgzNC42Yy0wLjUsMC0xLDAtMS40LDAuMmMtMC41LDAuMi0wLjksMC40LTEuMiwwLjhjLTAuMywwLjMtMC42LDAuOC0wLjgsMS4yYy0wLjIsMC41LTAuMiwwLjktMC4yLDEuNCYjMTA7JiM5OyYjOTtWNzZoNTguMlYzMi41eiIgY2xhc3M9InN0NCIvPiYjeGE7PC9nPiYjeGE7PC9zdmc+;fontSize=14;fontFamily=Google Sans;fontSource=https%3A%2F%2Ffonts.googleapis.com%2Fcss%3Ffamily%3DGoogle%2BSans;" parent="group-client3" vertex="1">
            <mxGeometry y="7.5" width="75" height="75" as="geometry" />
          </mxCell>
        </object>
        <object label="1" id="client3:eth1:leaf3:ethernet-1/1">
          <mxCell style="ellipse;whiteSpace=wrap;html=1;aspect=fixed;fontColor=#FFFFFF;fontSize=10;strokeColor=#98A2AE;fillColor=#BEC8D2;fontFamily=Google Sans;fontSource=https%3A%2F%2Ffonts.googleapis.com%2Fcss%3Ffamily%3DGoogle%2BSans;" parent="group-client3" vertex="1">
            <mxGeometry x="17.5" width="15" height="15" as="geometry" />
          </mxCell>
        </object>
        <object label="2" id="client3:eth2:leaf4:ethernet-1/1">
          <mxCell style="ellipse;whiteSpace=wrap;html=1;aspect=fixed;fontColor=#FFFFFF;fontSize=10;strokeColor=#98A2AE;fillColor=#BEC8D2;fontFamily=Google Sans;fontSource=https%3A%2F%2Ffonts.googleapis.com%2Fcss%3Ffamily%3DGoogle%2BSans;" parent="group-client3" vertex="1">
            <mxGeometry x="42.5" width="15" height="15" as="geometry" />
          </mxCell>
        </object>
        <mxCell id="group-client4" value="" style="group;fontFamily=Google Sans;fontSource=https%3A%2F%2Ffonts.googleapis.com%2Fcss%3Ffamily%3DGoogle%2BSans;" parent="1" vertex="1" connectable="0">
          <mxGeometry x="625" y="492.5" width="75" height="82.5" as="geometry" />
        </mxCell>
        <object label="client4" id="client4">
          <mxCell style="shape=image;imageAlign=center;imageVerticalAlign=middle;labelPosition=left;align=right;verticalLabelPosition=top;spacingLeft=0;verticalAlign=bottom;spacingTop=0;spacing=0;fontColor=default;editableCssRules=\.st[0-2]$;labelBackgroundColor=none;aspect=fixed;imageAspect=0;image=data:image/svg+xml,PHN2ZyB4bWxuczp4bGluaz0iaHR0cDovL3d3dy53My5vcmcvMTk5OS94bGluayIgeG1sbnM9Imh0dHA6Ly93d3cudzMub3JnLzIwMDAvc3ZnIiB4bWw6c3BhY2U9InByZXNlcnZlIiBzdHlsZT0iZW5hYmxlLWJhY2tncm91bmQ6bmV3IDAgMCAxMjAgMTIwOyIgdmlld0JveD0iMCAwIDEyMCAxMjAiIHk9IjBweCIgeD0iMHB4IiBpZD0iTGF5ZXJfMSIgdmVyc2lvbj0iMS4xIj4mI3hhOzxzdHlsZSB0eXBlPSJ0ZXh0L2NzcyI+LnN0MCB7IGZpbGw6IHJnYigxNDksIDE2NSwgMTY2KTsgfSAuc3QxIHsgZmlsbDogbm9uZTsgc3Ryb2tlOiByZ2IoMjU1LCAyNTUsIDI1NSk7IHN0cm9rZS13aWR0aDogNDsgc3Ryb2tlLWxpbmVjYXA6IHJvdW5kOyBzdHJva2UtbGluZWpvaW46IHJvdW5kOyBzdHJva2UtbWl0ZXJsaW1pdDogMTA7IH0gLnN0MiB7IGZpbGw6IHJnYigyNTUsIDI1NSwgMjU1KTsgfSAuc3QzIHsgZmlsbDogbm9uZTsgc3Ryb2tlOiByZ2IoMjU1LCAyNTUsIDI1NSk7IHN0cm9rZS13aWR0aDogNDsgc3Ryb2tlLW1pdGVybGltaXQ6IDEwOyB9IC5zdDQgeyBmaWxsOiBub25lOyBzdHJva2U6IHJnYigyNTUsIDI1NSwgMjU1KTsgc3Ryb2tlLXdpZHRoOiA0OyBzdHJva2UtbGluZWNhcDogcm91bmQ7IHN0cm9rZS1saW5lam9pbjogcm91bmQ7IH0gLnN0NSB7IGZpbGw6IHJnYigyNTUsIDI1NSwgMjU1KTsgc3Ryb2tlOiByZ2IoMjU1LCAyNTUsIDI1NSk7IHN0cm9rZS13aWR0aDogNDsgc3Ryb2tlLWxpbmVjYXA6IHJvdW5kOyBzdHJva2UtbGluZWpvaW46IHJvdW5kOyBzdHJva2UtbWl0ZXJsaW1pdDogMTA7IH0gLnN0NiB7IGZpbGw6IG5vbmU7IHN0cm9rZTogcmdiKDI1NSwgMjU1LCAyNTUpOyBzdHJva2Utd2lkdGg6IDQuMjMzMzsgc3Ryb2tlLWxpbmVjYXA6IHJvdW5kOyBzdHJva2UtbGluZWpvaW46IHJvdW5kOyBzdHJva2UtbWl0ZXJsaW1pdDogMTA7IH0gLnN0NyB7IGZpbGw6IG5vbmU7IHN0cm9rZTogcmdiKDI1NSwgMjU1LCAyNTUpOyBzdHJva2Utd2lkdGg6IDQ7IHN0cm9rZS1saW5lY2FwOiByb3VuZDsgc3Ryb2tlLW1pdGVybGltaXQ6IDEwOyB9IC5zdDggeyBmaWxsOiByZ2IoMjU1LCAyNTUsIDI1NSk7IHN0cm9rZTogcmdiKDI1NSwgMjU1LCAyNTUpOyBzdHJva2Utd2lkdGg6IDQ7IHN0cm9rZS1taXRlcmxpbWl0OiAxMDsgfSAuc3Q5IHsgZmlsbDogcmdiKDI1NSwgMjU1LCAyNTUpOyBzdHJva2U6IHJnYigyNTUsIDI1NSwgMjU1KTsgc3Ryb2tlLXdpZHRoOiA0OyB9IC5zdDEwIHsgZmlsbDogbm9uZTsgc3Ryb2tlOiByZ2IoMjU1LCAyNTUsIDI1NSk7IHN0cm9rZS13aWR0aDogNDsgfSAuc3QxMSB7IGZpbGw6IHJnYigzOCwgMzgsIDM4KTsgc3Ryb2tlOiByZ2IoMjU1LCAyNTUsIDI1NSk7IHN0cm9rZS13aWR0aDogNC4yMzMzOyB9IC5zdDEyIHsgZmlsbC1ydWxlOiBldmVub2RkOyBjbGlwLXJ1bGU6IGV2ZW5vZGQ7IGZpbGw6IG5vbmU7IHN0cm9rZTogcmdiKDI1NSwgMjU1LCAyNTUpOyBzdHJva2Utd2lkdGg6IDQ7IHN0cm9rZS1taXRlcmxpbWl0OiAxMDsgfSAuc3QxMyB7IGZpbGwtcnVsZTogZXZlbm9kZDsgY2xpcC1ydWxlOiBldmVub2RkOyBmaWxsOiByZ2IoMjU1LCAyNTUsIDI1NSk7IHN0cm9rZTogcmdiKDI1NSwgMjU1LCAyNTUpOyBzdHJva2Utd2lkdGg6IDQ7IH0gLnN0MTQgeyBmaWxsOiBub25lOyBzdHJva2U6IHJnYigyNTUsIDI1NSwgMjU1KTsgc3Ryb2tlLXdpZHRoOiA0LjIzMzM7IHN0cm9rZS1saW5lY2FwOiByb3VuZDsgc3Ryb2tlLWxpbmVqb2luOiByb3VuZDsgfSAuc3QxNSB7IGZpbGw6IG5vbmU7IHN0cm9rZTogcmdiKDI1NSwgMjU1LCAyNTUpOyBzdHJva2Utd2lkdGg6IDQ7IHN0cm9rZS1saW5lY2FwOiByb3VuZDsgfSAuc3QxNiB7IGZpbGw6IHJnYigyNTUsIDI1NSwgMjU1KTsgc3Ryb2tlOiByZ2IoMjU1LCAyNTUsIDI1NSk7IHN0cm9rZS1taXRlcmxpbWl0OiAxMDsgfSAuc3QxNyB7IGZpbGw6IHJnYigzOCwgMzgsIDM4KTsgc3Ryb2tlOiByZ2IoMjU1LCAyNTUsIDI1NSk7IHN0cm9rZS13aWR0aDogNDsgc3Ryb2tlLW1pdGVybGltaXQ6IDEwOyB9IC5zdDE4IHsgZmlsbDogcmdiKDI1NSwgMjU1LCAyNTUpOyBzdHJva2U6IHJnYigyNTUsIDI1NSwgMjU1KTsgc3Ryb2tlLXdpZHRoOiA0OyBzdHJva2UtbGluZWNhcDogcm91bmQ7IHN0cm9rZS1saW5lam9pbjogcm91bmQ7IH0gPC9zdHlsZT4mI3hhOzxyZWN0IGhlaWdodD0iMTIwIiB3aWR0aD0iMTIwIiBjbGFzcz0ic3QwIi8+JiN4YTs8Zz4mI3hhOwk8cGF0aCBkPSJNMTAwLDkxLjFIMjBIMTAweiBNODkuMSwzMi41YzAtMC41LDAtMS0wLjItMS40Yy0wLjItMC41LTAuNC0wLjktMC44LTEuMmMtMC4zLTAuMy0wLjgtMC42LTEuMi0wLjgmIzEwOyYjOTsmIzk7Yy0wLjUtMC4yLTAuOS0wLjItMS40LTAuMkgzNC42Yy0wLjUsMC0xLDAtMS40LDAuMmMtMC41LDAuMi0wLjksMC40LTEuMiwwLjhjLTAuMywwLjMtMC42LDAuOC0wLjgsMS4yYy0wLjIsMC41LTAuMiwwLjktMC4yLDEuNCYjMTA7JiM5OyYjOTtWNzZoNTguMlYzMi41eiIgY2xhc3M9InN0NCIvPiYjeGE7PC9nPiYjeGE7PC9zdmc+;fontSize=14;fontFamily=Google Sans;fontSource=https%3A%2F%2Ffonts.googleapis.com%2Fcss%3Ffamily%3DGoogle%2BSans;" parent="group-client4" vertex="1">
            <mxGeometry y="7.5" width="75" height="75" as="geometry" />
          </mxCell>
        </object>
        <object label="1" id="client4:eth1:leaf3:ethernet-1/2">
          <mxCell style="ellipse;whiteSpace=wrap;html=1;aspect=fixed;fontColor=#FFFFFF;fontSize=10;strokeColor=#98A2AE;fillColor=#BEC8D2;fontFamily=Google Sans;fontSource=https%3A%2F%2Ffonts.googleapis.com%2Fcss%3Ffamily%3DGoogle%2BSans;" parent="group-client4" vertex="1">
            <mxGeometry x="17.5" width="15" height="15" as="geometry" />
          </mxCell>
        </object>
        <object label="2" id="client4:eth2:leaf4:ethernet-1/2">
          <mxCell style="ellipse;whiteSpace=wrap;html=1;aspect=fixed;fontColor=#FFFFFF;fontSize=10;strokeColor=#98A2AE;fillColor=#BEC8D2;fontFamily=Google Sans;fontSource=https%3A%2F%2Ffonts.googleapis.com%2Fcss%3Ffamily%3DGoogle%2BSans;" parent="group-client4" vertex="1">
            <mxGeometry x="42.5" width="15" height="15" as="geometry" />
          </mxCell>
        </object>
        <mxCell id="JGWFle1bRSoaRzLSJIaw-2" value="asd" style="edgeLabel;html=1;align=center;verticalAlign=middle;resizable=0;points=[];fontSize=8;fontFamily=Google Sans;noLabel=1;fontColor=none;fontSource=https%3A%2F%2Ffonts.googleapis.com%2Fcss%3Ffamily%3DGoogle%2BSans;" parent="1" vertex="1" connectable="0">
          <mxGeometry x="201.86760892047533" y="174.8666174102509" as="geometry" />
        </mxCell>
        <mxCell id="JGWFle1bRSoaRzLSJIaw-3" value="" style="ellipse;whiteSpace=wrap;html=1;aspect=fixed;fontColor=#FFFFFF;fontSize=6;fontFamily=Google Sans;fontSource=https%3A%2F%2Ffonts.googleapis.com%2Fcss%3Ffamily%3DGoogle%2BSans;fillColor=#BEC8D2;strokeColor=none;" parent="1" vertex="1">
          <mxGeometry x="41" y="33.00454545454545" width="16.956521739130434" height="16.956521739130434" as="geometry" />
        </mxCell>
        <mxCell id="JGWFle1bRSoaRzLSJIaw-4" value="&lt;font style=&quot;font-size: 12px;&quot;&gt;0 - 0.5 M&lt;/font&gt;&lt;span style=&quot;font-size: 12px; background-color: initial;&quot;&gt;bps&lt;/span&gt;" style="text;html=1;align=left;verticalAlign=middle;resizable=0;points=[];autosize=1;fontSize=8;fontFamily=Google Sans;fontStyle=0;fontColor=default;fontSource=https%3A%2F%2Ffonts.googleapis.com%2Fcss%3Ffamily%3DGoogle%2BSans;" parent="1" vertex="1">
          <mxGeometry x="70.99913043478261" y="28.480000000000004" width="87" height="26" as="geometry" />
        </mxCell>
        <mxCell id="JGWFle1bRSoaRzLSJIaw-5" value="" style="ellipse;whiteSpace=wrap;html=1;aspect=fixed;fontColor=#FFFFFF;fontSize=6;fontFamily=Google Sans;fontSource=https%3A%2F%2Ffonts.googleapis.com%2Fcss%3Ffamily%3DGoogle%2BSans;strokeColor=none;fillColor=#4BDD33;" parent="1" vertex="1">
          <mxGeometry x="41" y="67.9981818181818" width="16.956521739130434" height="16.956521739130434" as="geometry" />
        </mxCell>
        <mxCell id="JGWFle1bRSoaRzLSJIaw-6" value="&lt;font style=&quot;font-size: 12px;&quot;&gt;0.5 - 1 Mbps&lt;/font&gt;" style="text;html=1;align=left;verticalAlign=middle;resizable=0;points=[];autosize=1;fontSize=12;fontFamily=Google Sans;fontStyle=0;fontColor=default;fontSource=https%3A%2F%2Ffonts.googleapis.com%2Fcss%3Ffamily%3DGoogle%2BSans;" parent="1" vertex="1">
          <mxGeometry x="70.99521739130438" y="63.47363636363636" width="84" height="26" as="geometry" />
        </mxCell>
        <mxCell id="JGWFle1bRSoaRzLSJIaw-7" value="" style="ellipse;whiteSpace=wrap;html=1;aspect=fixed;fontColor=#FFFFFF;fontSize=6;fontFamily=Google Sans;fontSource=https%3A%2F%2Ffonts.googleapis.com%2Fcss%3Ffamily%3DGoogle%2BSans;strokeColor=none;fillColor=#FF8000;" parent="1" vertex="1">
          <mxGeometry x="41" y="135" width="16.956521739130434" height="16.956521739130434" as="geometry" />
        </mxCell>
        <mxCell id="JGWFle1bRSoaRzLSJIaw-8" value="&lt;font style=&quot;font-size: 12px;&quot;&gt;2 - 5 Mbps&lt;/font&gt;" style="text;html=1;align=left;verticalAlign=middle;resizable=0;points=[];autosize=1;fontSize=12;fontFamily=Google Sans;fontStyle=0;fontColor=default;fontSource=https%3A%2F%2Ffonts.googleapis.com%2Fcss%3Ffamily%3DGoogle%2BSans;" parent="1" vertex="1">
          <mxGeometry x="70.99521739130438" y="130.47454545454542" width="75" height="26" as="geometry" />
        </mxCell>
        <mxCell id="JGWFle1bRSoaRzLSJIaw-9" value="" style="ellipse;whiteSpace=wrap;html=1;aspect=fixed;fontColor=#FFFFFF;fontSize=6;fontFamily=Google Sans;fontSource=https%3A%2F%2Ffonts.googleapis.com%2Fcss%3Ffamily%3DGoogle%2BSans;strokeColor=none;fillColor=#FF3154;" parent="1" vertex="1">
          <mxGeometry x="41" y="169" width="16.956521739130434" height="16.956521739130434" as="geometry" />
        </mxCell>
        <mxCell id="JGWFle1bRSoaRzLSJIaw-10" value="&lt;font style=&quot;font-size: 12px;&quot;&gt;5+ Mbps&lt;/font&gt;" style="text;html=1;align=left;verticalAlign=middle;resizable=0;points=[];autosize=1;fontSize=12;fontFamily=Google Sans;fontStyle=0;fontColor=default;fontSource=https%3A%2F%2Ffonts.googleapis.com%2Fcss%3Ffamily%3DGoogle%2BSans;" parent="1" vertex="1">
          <mxGeometry x="71.49521739130438" y="164.47818181818184" width="65" height="26" as="geometry" />
        </mxCell>
        <mxCell id="ntRZg32LXcXK1DJBekCX-1" value="" style="ellipse;whiteSpace=wrap;html=1;aspect=fixed;fontSize=6;fontFamily=Google Sans;fontSource=https%3A%2F%2Ffonts.googleapis.com%2Fcss%3Ffamily%3DGoogle%2BSans;strokeColor=#d6b656;fillColor=#FFFF00;" parent="1" vertex="1">
          <mxGeometry x="41" y="101" width="16.956521739130434" height="16.956521739130434" as="geometry" />
        </mxCell>
        <mxCell id="ntRZg32LXcXK1DJBekCX-2" value="&lt;font style=&quot;font-size: 12px;&quot;&gt;1 - 2&amp;nbsp; Mbps&lt;/font&gt;" style="text;html=1;align=left;verticalAlign=middle;resizable=0;points=[];autosize=1;fontSize=12;fontFamily=Google Sans;fontStyle=0;fontColor=default;fontSource=https%3A%2F%2Ffonts.googleapis.com%2Fcss%3Ffamily%3DGoogle%2BSans;" parent="1" vertex="1">
          <mxGeometry x="71.49521739130438" y="96.47454545454542" width="76" height="26" as="geometry" />
        </mxCell>
      </root>
    </mxGraphModel>
  </diagram>
</mxfile>
